<svg id="e2d6b6a6-e268-460c-b728-9b1d9d2a2837" data-name="Layer 1" xmlns="http://www.w3.org/2000/svg" viewBox="0 0 655.9 662.48"><title>border2</title><path d="M170.85,103.84a1.5,1.5,0,0,0,0-3,1.5,1.5,0,0,0,0,3Z" transform="translate(-16 -18.05)"/><path d="M125.91,178.39a1.5,1.5,0,0,0,0-3,1.5,1.5,0,0,0,0,3Z" transform="translate(-16 -18.05)"/><path d="M96.3,299.93a1.5,1.5,0,0,0,0-3,1.5,1.5,0,0,0,0,3Z" transform="translate(-16 -18.05)"/><path d="M108.55,413.29a1.5,1.5,0,0,0,0-3,1.5,1.5,0,0,0,0,3Z" transform="translate(-16 -18.05)"/><path d="M103.45,568.52a1.5,1.5,0,0,0,0-3,1.5,1.5,0,0,0,0,3Z" transform="translate(-16 -18.05)"/><path d="M76.89,639a1.5,1.5,0,0,0,0-3,1.5,1.5,0,0,0,0,3Z" transform="translate(-16 -18.05)"/><path d="M132,641a1.5,1.5,0,0,0,0-3,1.5,1.5,0,0,0,0,3Z" transform="translate(-16 -18.05)"/><path d="M219.87,657.37a1.5,1.5,0,0,0,0-3,1.5,1.5,0,0,0,0,3Z" transform="translate(-16 -18.05)"/><path d="M285.23,647.16a1.5,1.5,0,0,0,0-3,1.5,1.5,0,0,0,0,3Z" transform="translate(-16 -18.05)"/><path d="M363.87,635.93a1.5,1.5,0,0,0,0-3,1.5,1.5,0,0,0,0,3Z" transform="translate(-16 -18.05)"/><path d="M460.89,632.86a1.5,1.5,0,0,0,0-3,1.5,1.5,0,0,0,0,3Z" transform="translate(-16 -18.05)"/><path d="M541.57,653.29a1.5,1.5,0,0,0,0-3,1.5,1.5,0,0,0,0,3Z" transform="translate(-16 -18.05)"/><path d="M613.06,650.22a1.5,1.5,0,0,0,0-3,1.5,1.5,0,0,0,0,3Z" transform="translate(-16 -18.05)"/><path d="M619.19,573.63a1.5,1.5,0,0,0,0-3,1.5,1.5,0,0,0,0,3Z" transform="translate(-16 -18.05)"/><path d="M551.79,476.61a1.5,1.5,0,0,0,0-3,1.5,1.5,0,0,0,0,3Z" transform="translate(-16 -18.05)"/><path d="M410.85,484.78a1.5,1.5,0,0,0,0-3,1.5,1.5,0,0,0,0,3Z" transform="translate(-16 -18.05)"/><path d="M299.53,552.18a1.5,1.5,0,0,0,0-3,1.5,1.5,0,0,0,0,3Z" transform="translate(-16 -18.05)"/><path d="M138.17,452.1a1.5,1.5,0,0,0,0-3,1.5,1.5,0,0,0,0,3Z" transform="translate(-16 -18.05)"/><path d="M212.72,276.44a1.5,1.5,0,0,0,0-3,1.5,1.5,0,0,0,0,3Z" transform="translate(-16 -18.05)"/><path d="M156.55,285.63a1.5,1.5,0,0,0,0-3,1.5,1.5,0,0,0,0,3Z" transform="translate(-16 -18.05)"/><path d="M100.38,225.37a1.5,1.5,0,0,0,0-3,1.5,1.5,0,0,0,0,3Z" transform="translate(-16 -18.05)"/><path d="M66.68,145.71a1.5,1.5,0,0,0,0-3,1.5,1.5,0,0,0,0,3Z" transform="translate(-16 -18.05)"/><path d="M84,75.24a1.5,1.5,0,0,0,0-3,1.5,1.5,0,0,0,0,3Z" transform="translate(-16 -18.05)"/><path d="M194.3,86l1,1a1.72,1.72,0,0,0,1.06.44,1.15,1.15,0,0,0,.58-.13,1,1,0,0,0,.48-.31l.24-.3a1.57,1.57,0,0,0,.2-.76l0-.4a1.49,1.49,0,0,0-.39-.66l-1-1a1,1,0,0,0-.48-.31,1.06,1.06,0,0,0-.58-.13,1.08,1.08,0,0,0-.58.13,1.14,1.14,0,0,0-.48.31l-.23.3a1.48,1.48,0,0,0-.21.76l.06.4a1.57,1.57,0,0,0,.38.66Z" transform="translate(-16 -18.05)"/><path d="M350.6,95.67a1.5,1.5,0,0,0,0-3,1.5,1.5,0,0,0,0,3Z" transform="translate(-16 -18.05)"/><path d="M401.66,64a1.5,1.5,0,0,0,0-3,1.5,1.5,0,0,0,0,3Z" transform="translate(-16 -18.05)"/><path d="M510.94,63a1.5,1.5,0,0,0,0-3,1.5,1.5,0,0,0,0,3Z" transform="translate(-16 -18.05)"/><path d="M582.43,79.33a1.5,1.5,0,0,0,0-3,1.5,1.5,0,0,0,0,3Z" transform="translate(-16 -18.05)"/><path d="M567.11,165.12a1.5,1.5,0,0,0,0-3,1.5,1.5,0,0,0,0,3Z" transform="translate(-16 -18.05)"/><path d="M408.81,154.9a1.5,1.5,0,0,0,0-3,1.5,1.5,0,0,0,0,3Z" transform="translate(-16 -18.05)"/><path d="M323,209a1.5,1.5,0,0,0,0-3,1.5,1.5,0,0,0,0,3Z" transform="translate(-16 -18.05)"/><path d="M312.81,334.65a1.5,1.5,0,0,0,0-3,1.5,1.5,0,0,0,0,3Z" transform="translate(-16 -18.05)"/><path d="M255.62,424.52a1.5,1.5,0,0,0,0-3,1.5,1.5,0,0,0,0,3Z" transform="translate(-16 -18.05)"/><path d="M435.36,377.54a1.5,1.5,0,0,0,0-3,1.5,1.5,0,0,0,0,3Z" transform="translate(-16 -18.05)"/><path d="M483.36,461.29a1.5,1.5,0,0,0,0-3,1.5,1.5,0,0,0,0,3Z" transform="translate(-16 -18.05)"/><path d="M533.4,515.41a1.5,1.5,0,0,0,0-3,1.5,1.5,0,0,0,0,3Z" transform="translate(-16 -18.05)"/><path d="M579.36,518.48a1.5,1.5,0,0,0,0-3,1.5,1.5,0,0,0,0,3Z" transform="translate(-16 -18.05)"/><path d="M573.23,385.71a1.5,1.5,0,0,0,0-3,1.5,1.5,0,0,0,0,3Z" transform="translate(-16 -18.05)"/><path d="M526.26,364.27a1.5,1.5,0,0,0,0-3,1.5,1.5,0,0,0,0,3Z" transform="translate(-16 -18.05)"/><path d="M506.85,301a1.5,1.5,0,0,0,0-3,1.5,1.5,0,0,0,0,3Z" transform="translate(-16 -18.05)"/><path d="M412.89,327.5a1.5,1.5,0,0,0,0-3,1.5,1.5,0,0,0,0,3Z" transform="translate(-16 -18.05)"/><path d="M358.77,247.84a1.5,1.5,0,0,0,0-3,1.5,1.5,0,0,0,0,3Z" transform="translate(-16 -18.05)"/><path d="M447.62,224.35a1.5,1.5,0,0,0,0-3,1.5,1.5,0,0,0,0,3Z" transform="translate(-16 -18.05)"/><path d="M477.23,174.31a1.5,1.5,0,0,0,0-3,1.5,1.5,0,0,0,0,3Z" transform="translate(-16 -18.05)"/><path d="M486.43,124.27a1.5,1.5,0,0,0,0-3,1.5,1.5,0,0,0,0,3Z" transform="translate(-16 -18.05)"/><path d="M417,120.18a1.5,1.5,0,0,0,0-3,1.5,1.5,0,0,0,0,3Z" transform="translate(-16 -18.05)"/><path d="M286.26,165.12a1.5,1.5,0,0,0,0-3,1.5,1.5,0,0,0,0,3Z" transform="translate(-16 -18.05)"/><path d="M204.55,165.12a1.5,1.5,0,0,0,0-3,1.5,1.5,0,0,0,0,3Z" transform="translate(-16 -18.05)"/><path d="M244.38,118.14a1.5,1.5,0,0,0,0-3,1.5,1.5,0,0,0,0,3Z" transform="translate(-16 -18.05)"/><path d="M282.17,85.46a1.5,1.5,0,0,0,0-3,1.5,1.5,0,0,0,0,3Z" transform="translate(-16 -18.05)"/><path d="M550.77,43.59a1.5,1.5,0,0,0,0-3,1.5,1.5,0,0,0,0,3Z" transform="translate(-16 -18.05)"/><path d="M609,297.88a1.5,1.5,0,0,0,0-3,1.5,1.5,0,0,0,0,3Z" transform="translate(-16 -18.05)"/><path d="M560,265.2a1.5,1.5,0,0,0,0-3,1.5,1.5,0,0,0,0,3Z" transform="translate(-16 -18.05)"/><path d="M475.19,267.24a1.5,1.5,0,0,0,0-3,1.5,1.5,0,0,0,0,3Z" transform="translate(-16 -18.05)"/><path d="M420,281.54a1.5,1.5,0,0,0,0-3,1.5,1.5,0,0,0,0,3Z" transform="translate(-16 -18.05)"/><path d="M360.81,193.71a1.5,1.5,0,0,0,0-3,1.5,1.5,0,0,0,0,3Z" transform="translate(-16 -18.05)"/><path d="M630.43,486.82a1.5,1.5,0,0,0,0-3,1.5,1.5,0,0,0,0,3Z" transform="translate(-16 -18.05)"/><path d="M625.32,456.18a1.5,1.5,0,0,0,0-3,1.5,1.5,0,0,0,0,3Z" transform="translate(-16 -18.05)"/><path d="M550.77,421.46a1.5,1.5,0,0,0,0-3,1.5,1.5,0,0,0,0,3Z" transform="translate(-16 -18.05)"/><path d="M490.51,421.46a1.5,1.5,0,0,0,0-3,1.5,1.5,0,0,0,0,3Z" transform="translate(-16 -18.05)"/><path d="M370,419.41a1.5,1.5,0,0,0,0-3,1.5,1.5,0,0,0,0,3Z" transform="translate(-16 -18.05)"/><path d="M317.91,465.37a1.5,1.5,0,0,0,0-3,1.5,1.5,0,0,0,0,3Z" transform="translate(-16 -18.05)"/><path d="M201.49,516.44a1.5,1.5,0,0,0,0-3,1.5,1.5,0,0,0,0,3Z" transform="translate(-16 -18.05)"/><path d="M182.09,594.05a1.5,1.5,0,0,0,0-3,1.5,1.5,0,0,0,0,3Z" transform="translate(-16 -18.05)"/><path d="M122.85,537.88a1.5,1.5,0,0,0,0-3,1.5,1.5,0,0,0,0,3Z" transform="translate(-16 -18.05)"/><path d="M71.79,514.39a1.5,1.5,0,0,0,0-3,1.5,1.5,0,0,0,0,3Z" transform="translate(-16 -18.05)"/><path d="M67.7,468.44a1.5,1.5,0,0,0,0-3,1.5,1.5,0,0,0,0,3Z" transform="translate(-16 -18.05)"/><path d="M61.57,387.76a1.5,1.5,0,0,0,0-3,1.5,1.5,0,0,0,0,3Z" transform="translate(-16 -18.05)"/><path d="M48.3,249.88a1.5,1.5,0,0,0,0-3,1.5,1.5,0,0,0,0,3Z" transform="translate(-16 -18.05)"/><path d="M142.26,383.67a1.5,1.5,0,0,0,0-3,1.5,1.5,0,0,0,0,3Z" transform="translate(-16 -18.05)"/><path d="M229.06,465.37a1.5,1.5,0,0,0,0-3,1.5,1.5,0,0,0,0,3Z" transform="translate(-16 -18.05)"/><path d="M317.91,514.39a1.5,1.5,0,0,0,0-3,1.5,1.5,0,0,0,0,3Z" transform="translate(-16 -18.05)"/><path d="M449.66,523.59a1.5,1.5,0,0,0,0-3,1.5,1.5,0,0,0,0,3Z" transform="translate(-16 -18.05)"/><path d="M525.23,545a1.5,1.5,0,0,0,0-3,1.5,1.5,0,0,0,0,3Z" transform="translate(-16 -18.05)"/><path d="M555.87,619.59a1.5,1.5,0,0,0,0-3,1.5,1.5,0,0,0,0,3Z" transform="translate(-16 -18.05)"/><path d="M634.51,619.59a1.5,1.5,0,0,0,0-3,1.5,1.5,0,0,0,0,3Z" transform="translate(-16 -18.05)"/><path d="M617.15,548.1a1.5,1.5,0,0,0,0-3,1.5,1.5,0,0,0,0,3Z" transform="translate(-16 -18.05)"/><path d="M567.11,570.56a1.5,1.5,0,0,0,0-3,1.5,1.5,0,0,0,0,3Z" transform="translate(-16 -18.05)"/><path d="M420,560.35a1.5,1.5,0,0,0,0-3,1.5,1.5,0,0,0,0,3Z" transform="translate(-16 -18.05)"/><path d="M352.64,574.65a1.5,1.5,0,0,0,0-3,1.5,1.5,0,0,0,0,3Z" transform="translate(-16 -18.05)"/><path d="M247.45,586.9a1.5,1.5,0,0,0,0-3,1.5,1.5,0,0,0,0,3Z" transform="translate(-16 -18.05)"/><path d="M263.79,495a1.5,1.5,0,0,0,0-3,1.5,1.5,0,0,0,0,3Z" transform="translate(-16 -18.05)"/><path d="M203.53,381.63a1.5,1.5,0,0,0,0-3,1.5,1.5,0,0,0,0,3Z" transform="translate(-16 -18.05)"/><path d="M241.32,359.16a1.5,1.5,0,0,0,0-3,1.5,1.5,0,0,0,0,3Z" transform="translate(-16 -18.05)"/><path d="M249.49,278.48a1.5,1.5,0,0,0,0-3,1.5,1.5,0,0,0,0,3Z" transform="translate(-16 -18.05)"/><path d="M189.23,239.67a1.5,1.5,0,0,0,0-3,1.5,1.5,0,0,0,0,3Z" transform="translate(-16 -18.05)"/><path d="M365.91,292.78a1.5,1.5,0,0,0,0-3,1.5,1.5,0,0,0,0,3Z" transform="translate(-16 -18.05)"/><path d="M397.57,385.71a1.5,1.5,0,0,0,0-3,1.5,1.5,0,0,0,0,3Z" transform="translate(-16 -18.05)"/><path d="M488,597l1,4.08a1.52,1.52,0,0,0,1.85,1,1.54,1.54,0,0,0,1-1.85l-1-4.08a1.5,1.5,0,0,0-2.9.8Z" transform="translate(-16 -18.05)"/><path d="M510.94,225.37a1.5,1.5,0,0,0,0-3,1.5,1.5,0,0,0,0,3Z" transform="translate(-16 -18.05)"/><path d="M285.23,203.93a1.5,1.5,0,0,0,0-3,1.5,1.5,0,0,0,0,3Z" transform="translate(-16 -18.05)"/><path d="M30.78,54c13.94,83.17,8.49,168.32,4,252.08q-3.43,64.29-8.13,128.5-2.31,31.78-4.94,63.54c-1.71,20.7-3.79,41.37-5,62.1s-1.21,41.59,1.66,62.2c1.29,9.26,2.81,18.8,6.47,27.45a39.76,39.76,0,0,0,16.27,18.76c15.78,9.52,34.63,8.44,52.07,5.43,10.35-1.79,20.6-4,31-5.3a289.65,289.65,0,0,1,31.29-2.14c20.62-.29,40.95,2,61.21,5.62,20,3.62,39.91,7.63,60.27,8.18,39.68,1.06,78.64-8.29,117.34-15.71,19.26-3.68,38.64-7,58.24-8.21A284,284,0,0,1,514,659.65c20.21,3.13,40.15,7.75,60,12.45,10.16,2.39,20.31,4.85,30.51,7.07,8.54,1.86,17.22,2.37,23.68-4.59,5.94-6.41,9.83-15.35,13.58-23.14a256,256,0,0,0,10.71-25.81,307.7,307.7,0,0,0,13.32-53.24c6.18-38,6.75-76.61,5.48-115-1.4-42.1-5.31-84.07-10-125.92-4.76-42.35-10.68-84.58-14.82-127-2-21-3.54-42.08-3.83-63.18-.3-20.83,1.24-41.34,3-62.06,1.42-16.28,1-34.47-11.35-46.8C623,21.1,605.91,18.61,590.56,18.17c-21.13-.59-42.34,1.09-63.4,2.59s-42.3,2.87-63.47,4q-64.17,3.42-128.42,4.33-63.6.88-127.2-.69-32.2-.81-64.4-2.24c-17.61-.76-35.35-1.39-52.88.8-16.86,2.11-33.34,6.82-47.62,16.26-4.81,3.18-.31,11,4.54,7.77C77.27,31.46,114.6,33.92,148.4,35.38q62.9,2.71,125.86,3,125.92.57,251.6-8.54c20.57-1.46,41.19-3,61.82-2.73,14.55.18,32.26,1.66,42.22,13.76,10.44,12.68,7.54,31.54,6,46.61A475.35,475.35,0,0,0,633.84,149c1.14,41.8,6.6,83.33,11.65,124.79s10.07,82.83,13.41,124.41c3.21,39.86,5.15,80,3.37,120-1.61,36.31-6.7,72.79-19.15,107.1a231.27,231.27,0,0,1-10.53,24.57q-3,6-6.38,11.85c-1.82,3.16-3.75,7-7.1,8.74-3.7,2-8.28.83-12.14,0-4.89-1.06-9.77-2.2-14.64-3.34-10.18-2.37-20.34-4.82-30.52-7.15-38.73-8.89-77.75-15.45-117.58-11.82-38.8,3.54-76.53,13.78-115,19.56-19.24,2.89-38.75,4.52-58.2,3.47-20-1.09-39.62-5.57-59.35-8.92a307.85,307.85,0,0,0-59.93-4.56,293.48,293.48,0,0,0-31.21,2.54c-10,1.34-19.81,3.43-29.73,5.14-16.19,2.79-35.27,3.94-48.88-7.1-6.9-5.6-10-13.59-11.93-22a195.29,195.29,0,0,1-4.32-29.87c-1.45-20-.53-40,1-59.93,1.58-20.88,3.54-41.73,5.22-62.6q5-62.22,8.84-124.54C43.3,317.6,45.59,275.83,47.21,234c1.59-41.06,2.18-82.24-.77-123.26C45,91,42.74,71.22,39.46,51.63c-1-5.69-9.63-3.28-8.68,2.4Z" transform="translate(-16 -18.05)"/></svg>