<svg id="e73b13eb-19da-408a-bba7-c4d2e35b2a94" data-name="Layer 1" xmlns="http://www.w3.org/2000/svg" viewBox="0 0 675.39 683.63"><title>border6</title><path d="M170.85,103.84a1.5,1.5,0,0,0,0-3,1.5,1.5,0,0,0,0,3Z" transform="translate(-7.1 -7.72)"/><path d="M125.91,178.39a1.5,1.5,0,0,0,0-3,1.5,1.5,0,0,0,0,3Z" transform="translate(-7.1 -7.72)"/><path d="M96.3,299.93a1.5,1.5,0,0,0,0-3,1.5,1.5,0,0,0,0,3Z" transform="translate(-7.1 -7.72)"/><path d="M108.55,413.29a1.5,1.5,0,0,0,0-3,1.5,1.5,0,0,0,0,3Z" transform="translate(-7.1 -7.72)"/><path d="M103.45,568.52a1.5,1.5,0,0,0,0-3,1.5,1.5,0,0,0,0,3Z" transform="translate(-7.1 -7.72)"/><path d="M76.89,639a1.5,1.5,0,0,0,0-3,1.5,1.5,0,0,0,0,3Z" transform="translate(-7.1 -7.72)"/><path d="M132,641a1.5,1.5,0,0,0,0-3,1.5,1.5,0,0,0,0,3Z" transform="translate(-7.1 -7.72)"/><path d="M219.87,657.37a1.5,1.5,0,0,0,0-3,1.5,1.5,0,0,0,0,3Z" transform="translate(-7.1 -7.72)"/><path d="M285.23,647.16a1.5,1.5,0,0,0,0-3,1.5,1.5,0,0,0,0,3Z" transform="translate(-7.1 -7.72)"/><path d="M363.87,635.93a1.5,1.5,0,0,0,0-3,1.5,1.5,0,0,0,0,3Z" transform="translate(-7.1 -7.72)"/><path d="M460.89,632.86a1.5,1.5,0,0,0,0-3,1.5,1.5,0,0,0,0,3Z" transform="translate(-7.1 -7.72)"/><path d="M541.57,653.29a1.5,1.5,0,0,0,0-3,1.5,1.5,0,0,0,0,3Z" transform="translate(-7.1 -7.72)"/><path d="M613.06,650.22a1.5,1.5,0,0,0,0-3,1.5,1.5,0,0,0,0,3Z" transform="translate(-7.1 -7.72)"/><path d="M619.19,573.63a1.5,1.5,0,0,0,0-3,1.5,1.5,0,0,0,0,3Z" transform="translate(-7.1 -7.72)"/><path d="M551.79,476.61a1.5,1.5,0,0,0,0-3,1.5,1.5,0,0,0,0,3Z" transform="translate(-7.1 -7.72)"/><path d="M410.85,484.78a1.5,1.5,0,0,0,0-3,1.5,1.5,0,0,0,0,3Z" transform="translate(-7.1 -7.72)"/><path d="M299.53,552.18a1.5,1.5,0,0,0,0-3,1.5,1.5,0,0,0,0,3Z" transform="translate(-7.1 -7.72)"/><path d="M138.17,452.1a1.5,1.5,0,0,0,0-3,1.5,1.5,0,0,0,0,3Z" transform="translate(-7.1 -7.72)"/><path d="M212.72,276.44a1.5,1.5,0,0,0,0-3,1.5,1.5,0,0,0,0,3Z" transform="translate(-7.1 -7.72)"/><path d="M156.55,285.63a1.5,1.5,0,0,0,0-3,1.5,1.5,0,0,0,0,3Z" transform="translate(-7.1 -7.72)"/><path d="M100.38,225.37a1.5,1.5,0,0,0,0-3,1.5,1.5,0,0,0,0,3Z" transform="translate(-7.1 -7.72)"/><path d="M66.68,145.71a1.5,1.5,0,0,0,0-3,1.5,1.5,0,0,0,0,3Z" transform="translate(-7.1 -7.72)"/><path d="M84,75.24a1.5,1.5,0,0,0,0-3,1.5,1.5,0,0,0,0,3Z" transform="translate(-7.1 -7.72)"/><path d="M194.3,86l1,1a1.72,1.72,0,0,0,1.06.44,1.15,1.15,0,0,0,.58-.13,1,1,0,0,0,.48-.31l.24-.3a1.57,1.57,0,0,0,.2-.76l0-.4a1.49,1.49,0,0,0-.39-.66l-1-1a1,1,0,0,0-.48-.31,1.06,1.06,0,0,0-.58-.13,1.08,1.08,0,0,0-.58.13,1.14,1.14,0,0,0-.48.31l-.23.3a1.48,1.48,0,0,0-.21.76l.06.4a1.57,1.57,0,0,0,.38.66Z" transform="translate(-7.1 -7.72)"/><path d="M350.6,95.67a1.5,1.5,0,0,0,0-3,1.5,1.5,0,0,0,0,3Z" transform="translate(-7.1 -7.72)"/><path d="M401.66,64a1.5,1.5,0,0,0,0-3,1.5,1.5,0,0,0,0,3Z" transform="translate(-7.1 -7.72)"/><path d="M510.94,63a1.5,1.5,0,0,0,0-3,1.5,1.5,0,0,0,0,3Z" transform="translate(-7.1 -7.72)"/><path d="M582.43,79.33a1.5,1.5,0,0,0,0-3,1.5,1.5,0,0,0,0,3Z" transform="translate(-7.1 -7.72)"/><path d="M567.11,165.12a1.5,1.5,0,0,0,0-3,1.5,1.5,0,0,0,0,3Z" transform="translate(-7.1 -7.72)"/><path d="M408.81,154.9a1.5,1.5,0,0,0,0-3,1.5,1.5,0,0,0,0,3Z" transform="translate(-7.1 -7.72)"/><path d="M323,209a1.5,1.5,0,0,0,0-3,1.5,1.5,0,0,0,0,3Z" transform="translate(-7.1 -7.72)"/><path d="M312.81,334.65a1.5,1.5,0,0,0,0-3,1.5,1.5,0,0,0,0,3Z" transform="translate(-7.1 -7.72)"/><path d="M255.62,424.52a1.5,1.5,0,0,0,0-3,1.5,1.5,0,0,0,0,3Z" transform="translate(-7.1 -7.72)"/><path d="M435.36,377.54a1.5,1.5,0,0,0,0-3,1.5,1.5,0,0,0,0,3Z" transform="translate(-7.1 -7.72)"/><path d="M483.36,461.29a1.5,1.5,0,0,0,0-3,1.5,1.5,0,0,0,0,3Z" transform="translate(-7.1 -7.72)"/><path d="M533.4,515.41a1.5,1.5,0,0,0,0-3,1.5,1.5,0,0,0,0,3Z" transform="translate(-7.1 -7.72)"/><path d="M579.36,518.48a1.5,1.5,0,0,0,0-3,1.5,1.5,0,0,0,0,3Z" transform="translate(-7.1 -7.72)"/><path d="M573.23,385.71a1.5,1.5,0,0,0,0-3,1.5,1.5,0,0,0,0,3Z" transform="translate(-7.1 -7.72)"/><path d="M526.26,364.27a1.5,1.5,0,0,0,0-3,1.5,1.5,0,0,0,0,3Z" transform="translate(-7.1 -7.72)"/><path d="M506.85,301a1.5,1.5,0,0,0,0-3,1.5,1.5,0,0,0,0,3Z" transform="translate(-7.1 -7.72)"/><path d="M412.89,327.5a1.5,1.5,0,0,0,0-3,1.5,1.5,0,0,0,0,3Z" transform="translate(-7.1 -7.72)"/><path d="M358.77,247.84a1.5,1.5,0,0,0,0-3,1.5,1.5,0,0,0,0,3Z" transform="translate(-7.1 -7.72)"/><path d="M447.62,224.35a1.5,1.5,0,0,0,0-3,1.5,1.5,0,0,0,0,3Z" transform="translate(-7.1 -7.72)"/><path d="M477.23,174.31a1.5,1.5,0,0,0,0-3,1.5,1.5,0,0,0,0,3Z" transform="translate(-7.1 -7.72)"/><path d="M486.43,124.27a1.5,1.5,0,0,0,0-3,1.5,1.5,0,0,0,0,3Z" transform="translate(-7.1 -7.72)"/><path d="M417,120.18a1.5,1.5,0,0,0,0-3,1.5,1.5,0,0,0,0,3Z" transform="translate(-7.1 -7.72)"/><path d="M286.26,165.12a1.5,1.5,0,0,0,0-3,1.5,1.5,0,0,0,0,3Z" transform="translate(-7.1 -7.72)"/><path d="M204.55,165.12a1.5,1.5,0,0,0,0-3,1.5,1.5,0,0,0,0,3Z" transform="translate(-7.1 -7.72)"/><path d="M244.38,118.14a1.5,1.5,0,0,0,0-3,1.5,1.5,0,0,0,0,3Z" transform="translate(-7.1 -7.72)"/><path d="M282.17,85.46a1.5,1.5,0,0,0,0-3,1.5,1.5,0,0,0,0,3Z" transform="translate(-7.1 -7.72)"/><path d="M550.77,43.59a1.5,1.5,0,0,0,0-3,1.5,1.5,0,0,0,0,3Z" transform="translate(-7.1 -7.72)"/><path d="M609,297.88a1.5,1.5,0,0,0,0-3,1.5,1.5,0,0,0,0,3Z" transform="translate(-7.1 -7.72)"/><path d="M560,265.2a1.5,1.5,0,0,0,0-3,1.5,1.5,0,0,0,0,3Z" transform="translate(-7.1 -7.72)"/><path d="M475.19,267.24a1.5,1.5,0,0,0,0-3,1.5,1.5,0,0,0,0,3Z" transform="translate(-7.1 -7.72)"/><path d="M420,281.54a1.5,1.5,0,0,0,0-3,1.5,1.5,0,0,0,0,3Z" transform="translate(-7.1 -7.72)"/><path d="M360.81,193.71a1.5,1.5,0,0,0,0-3,1.5,1.5,0,0,0,0,3Z" transform="translate(-7.1 -7.72)"/><path d="M630.43,486.82a1.5,1.5,0,0,0,0-3,1.5,1.5,0,0,0,0,3Z" transform="translate(-7.1 -7.72)"/><path d="M625.32,456.18a1.5,1.5,0,0,0,0-3,1.5,1.5,0,0,0,0,3Z" transform="translate(-7.1 -7.72)"/><path d="M550.77,421.46a1.5,1.5,0,0,0,0-3,1.5,1.5,0,0,0,0,3Z" transform="translate(-7.1 -7.72)"/><path d="M490.51,421.46a1.5,1.5,0,0,0,0-3,1.5,1.5,0,0,0,0,3Z" transform="translate(-7.1 -7.72)"/><path d="M370,419.41a1.5,1.5,0,0,0,0-3,1.5,1.5,0,0,0,0,3Z" transform="translate(-7.1 -7.72)"/><path d="M317.91,465.37a1.5,1.5,0,0,0,0-3,1.5,1.5,0,0,0,0,3Z" transform="translate(-7.1 -7.72)"/><path d="M201.49,516.44a1.5,1.5,0,0,0,0-3,1.5,1.5,0,0,0,0,3Z" transform="translate(-7.1 -7.72)"/><path d="M182.09,594.05a1.5,1.5,0,0,0,0-3,1.5,1.5,0,0,0,0,3Z" transform="translate(-7.1 -7.72)"/><path d="M122.85,537.88a1.5,1.5,0,0,0,0-3,1.5,1.5,0,0,0,0,3Z" transform="translate(-7.1 -7.72)"/><path d="M71.79,514.39a1.5,1.5,0,0,0,0-3,1.5,1.5,0,0,0,0,3Z" transform="translate(-7.1 -7.72)"/><path d="M67.7,468.44a1.5,1.5,0,0,0,0-3,1.5,1.5,0,0,0,0,3Z" transform="translate(-7.1 -7.72)"/><path d="M61.57,387.76a1.5,1.5,0,0,0,0-3,1.5,1.5,0,0,0,0,3Z" transform="translate(-7.1 -7.72)"/><path d="M48.3,249.88a1.5,1.5,0,0,0,0-3,1.5,1.5,0,0,0,0,3Z" transform="translate(-7.1 -7.72)"/><path d="M142.26,383.67a1.5,1.5,0,0,0,0-3,1.5,1.5,0,0,0,0,3Z" transform="translate(-7.1 -7.72)"/><path d="M229.06,465.37a1.5,1.5,0,0,0,0-3,1.5,1.5,0,0,0,0,3Z" transform="translate(-7.1 -7.72)"/><path d="M317.91,514.39a1.5,1.5,0,0,0,0-3,1.5,1.5,0,0,0,0,3Z" transform="translate(-7.1 -7.72)"/><path d="M449.66,523.59a1.5,1.5,0,0,0,0-3,1.5,1.5,0,0,0,0,3Z" transform="translate(-7.1 -7.72)"/><path d="M525.23,545a1.5,1.5,0,0,0,0-3,1.5,1.5,0,0,0,0,3Z" transform="translate(-7.1 -7.72)"/><path d="M555.87,619.59a1.5,1.5,0,0,0,0-3,1.5,1.5,0,0,0,0,3Z" transform="translate(-7.1 -7.72)"/><path d="M634.51,619.59a1.5,1.5,0,0,0,0-3,1.5,1.5,0,0,0,0,3Z" transform="translate(-7.1 -7.72)"/><path d="M617.15,548.1a1.5,1.5,0,0,0,0-3,1.5,1.5,0,0,0,0,3Z" transform="translate(-7.1 -7.72)"/><path d="M567.11,570.56a1.5,1.5,0,0,0,0-3,1.5,1.5,0,0,0,0,3Z" transform="translate(-7.1 -7.72)"/><path d="M420,560.35a1.5,1.5,0,0,0,0-3,1.5,1.5,0,0,0,0,3Z" transform="translate(-7.1 -7.72)"/><path d="M352.64,574.65a1.5,1.5,0,0,0,0-3,1.5,1.5,0,0,0,0,3Z" transform="translate(-7.1 -7.72)"/><path d="M247.45,586.9a1.5,1.5,0,0,0,0-3,1.5,1.5,0,0,0,0,3Z" transform="translate(-7.1 -7.72)"/><path d="M263.79,495a1.5,1.5,0,0,0,0-3,1.5,1.5,0,0,0,0,3Z" transform="translate(-7.1 -7.72)"/><path d="M203.53,381.63a1.5,1.5,0,0,0,0-3,1.5,1.5,0,0,0,0,3Z" transform="translate(-7.1 -7.72)"/><path d="M241.32,359.16a1.5,1.5,0,0,0,0-3,1.5,1.5,0,0,0,0,3Z" transform="translate(-7.1 -7.72)"/><path d="M249.49,278.48a1.5,1.5,0,0,0,0-3,1.5,1.5,0,0,0,0,3Z" transform="translate(-7.1 -7.72)"/><path d="M189.23,239.67a1.5,1.5,0,0,0,0-3,1.5,1.5,0,0,0,0,3Z" transform="translate(-7.1 -7.72)"/><path d="M365.91,292.78a1.5,1.5,0,0,0,0-3,1.5,1.5,0,0,0,0,3Z" transform="translate(-7.1 -7.72)"/><path d="M397.57,385.71a1.5,1.5,0,0,0,0-3,1.5,1.5,0,0,0,0,3Z" transform="translate(-7.1 -7.72)"/><path d="M488,597l1,4.08a1.52,1.52,0,0,0,1.85,1,1.54,1.54,0,0,0,1-1.85l-1-4.08a1.5,1.5,0,0,0-2.9.8Z" transform="translate(-7.1 -7.72)"/><path d="M510.94,225.37a1.5,1.5,0,0,0,0-3,1.5,1.5,0,0,0,0,3Z" transform="translate(-7.1 -7.72)"/><path d="M285.23,203.93a1.5,1.5,0,0,0,0-3,1.5,1.5,0,0,0,0,3Z" transform="translate(-7.1 -7.72)"/><path d="M7.3,25.49C30.59,105.5,27,189.7,27.24,272.12Q27.54,402.31,36,532.3q2.13,32.64,4.77,65.25c1.37,16.8,3.14,33.94,10,49.52s19.25,26.8,34.93,33.09c15.43,6.2,32.51,7.5,49,8.06,42.71,1.47,85.5,1.85,128.23,2.37q65.12.79,130.25.76,65.79,0,131.58-.87,32.22-.42,64.44-1,16.78-.32,33.57-.7c8.49-.19,17.41-.35,25.48-3.31a32.66,32.66,0,0,0,18.24-16c4.2-8.21,5.83-17.47,7.49-26.45a502.15,502.15,0,0,0,7.24-61.74c2.5-42.6.7-85.3-.72-127.9-2.88-86.55-5.93-173.12-12.59-259.48-1.57-20.26-3.13-40.55-5.4-60.74-2-17.62-4.73-35.36-10.9-52.06-6-16.39-15.36-31.49-28.78-42.88-13-11.06-28.76-18.64-45.27-22.91-19.75-5.11-40.18-4.91-60.42-4.38-21.37.56-42.75,1.13-64.12,1.85C410.74,14.18,368.45,16.2,326.3,20S242.37,29.47,201,38c-20.54,4.24-41.38,9.19-62.44,6C117.76,40.87,97.47,33,77.44,26.7L17.77,8c-5.53-1.74-7.9,7-2.39,8.68L76.31,35.77c19.65,6.17,39.47,13.8,59.9,16.92C156.8,55.85,177,52.21,197.12,48q30.66-6.42,61.63-11c82.92-12.2,166.89-14.61,250.56-16.84,20.19-.54,40.78-1.66,60.67,2.62,16.15,3.47,32,10,44.89,20.48,27.75,22.43,35.25,58.36,38.9,92.09,4.49,41.53,7.2,83.32,9.63,125,2.48,42.56,4.3,85.16,5.86,127.77,1.56,42.24,3.33,84.5,4,126.77.69,41.35-.28,83-7.62,123.81-1.52,8.42-2.78,17.5-6.48,25.3s-10,12.34-18.29,14.22c-8.93,2-18.42,1.55-27.51,1.75q-16.11.34-32.22.64-64.44,1.18-128.89,1.57-128.91.78-257.8-1.62c-20.59-.39-41.21-.58-61.79-1.39-15.66-.62-32.19-1.94-46.62-8.56-15-6.88-24.92-19.13-29.94-34.71-5.49-17-6.13-35.28-7.5-53q-9.9-127.8-11.9-256c-.65-41.79-.21-83.58-.49-125.37-.27-40.42-1.73-80.92-7.78-120.94A442.28,442.28,0,0,0,16,23.09c-1.62-5.55-10.31-3.18-8.68,2.4Z" transform="translate(-7.1 -7.72)"/></svg>