<svg id="bc29f07e-e5d0-4454-b0f1-7e0987bb4e08" data-name="Layer 1" xmlns="http://www.w3.org/2000/svg" viewBox="0 0 665.02 674.9"><title>border</title><path d="M18.08,34.91c19.16,33,12.54,73.22,7.28,109-3.05,20.71-5.53,41.39-6.31,62.32-.82,21.88-.24,43.79,1.1,65.63,2.72,44.42,8.17,88.67,12.87,132.9,4.72,44.48,9.79,88.93,14.13,133.45,2.11,21.63,3.31,43.48-.31,65-1.76,10.49-4.18,20.87-5.65,31.41-1.34,9.6-2.46,20-.18,29.51s8.8,15,18.12,16.92a138.07,138.07,0,0,0,31.18,2.31c21.31-.58,42.29-4.69,63.41-7.16a252.93,252.93,0,0,1,63.17.71c20.89,2.76,41.6,6.92,62.61,8.7a194,194,0,0,0,59.39-4c18.94-4.25,37.33-10.55,56-15.76,18.05-5,36.6-9.15,55.46-8.43,20,.77,37.54,8.8,55.65,16.57,9.22,4,18.58,7.68,28.43,9.74a133,133,0,0,0,31.48,2.46,308.06,308.06,0,0,0,31.79-3.08c9.93-1.37,20-2.56,29.71-5.06,17.25-4.44,31.37-14.39,40.89-29.48,9-14.34,13.39-31.5,14-48.34.84-21.5-3.78-42.78-8.71-63.57-5-21.19-9.79-42.41-13.67-63.84a987.68,987.68,0,0,1-14.66-130.26c-2-43.37-2.41-87.58,5.1-130.47,3.76-21.5,8.22-42.75,10-64.55s1.6-44,.94-66c-.32-10.4-.51-20.85-1.23-31.23-.55-7.92-1.71-16.34-6-23.22-4.84-7.82-12.72-11.31-21.6-12.42-10.5-1.31-21.26-1.42-31.83-1.87-44-1.87-88.09-1.67-132.12-.54C424.24,13.48,380,15.56,335.67,17.4s-88.52,3.45-132.81,3.66c-44,.21-88.05-1-131.91-4.66C53.83,15,34.79,13.23,20,23.88c-4.65,3.36-.16,11.17,4.55,7.77,15-10.82,35-7.14,52.22-5.78,21.62,1.72,43.28,2.83,65,3.48,43.36,1.3,86.76.73,130.11-.59s86.85-3.41,130.27-5.15c43.61-1.76,87.24-3.17,130.89-3.13,21.69,0,43.39.41,65.06,1.29,10.57.43,21.19.75,31.73,1.69,8.35.75,15.22,3.83,18.41,12,3,7.63,3,16.11,3.29,24.17.43,10.79.84,21.58,1.06,32.38.46,21.55.2,43.15-2,64.61-2.21,21.29-7.28,42.09-10.44,63.24a481,481,0,0,0-4.74,64.24A986.44,986.44,0,0,0,642,412.43c5,42.52,12.95,84.42,22.84,126.05,8.41,35.44,16.27,76.25-6.15,108.4A54.65,54.65,0,0,1,641.38,663c-8.3,4.8-17.73,7-27.1,8.65-20.11,3.45-41,6.55-61.42,5.46a107.27,107.27,0,0,1-29.75-5.91C513.86,668,505,663.77,496,659.93s-18-7.33-27.54-9.28a113.49,113.49,0,0,0-27.34-2.17c-37.85,1.48-72.87,18.13-109.59,25.57-19.68,4-39.45,4.07-59.37,1.89-20.56-2.25-40.86-6.36-61.39-8.75a253.86,253.86,0,0,0-62,.67c-20.65,2.63-41.25,6.48-62.13,6.62a150.21,150.21,0,0,1-15.44-.67c-4.7-.46-9.94-.88-14.36-2.67-8.47-3.42-8.18-14.67-7.94-22.28.68-21,7.55-41.19,8.92-62.12,1.41-21.6-1-43.21-3.31-64.67l-7-65.52C42.86,412.77,38,369,33.62,325.18,29.29,282,26,238.6,28.58,195.24c1.19-20,4.19-39.72,7-59.53,2.61-18.4,5-37,4-55.63-.9-17.41-4.9-34.54-13.71-49.71-2.91-5-10.69-.48-7.77,4.54Z" transform="translate(-17.43 -11.48)"/></svg>