<svg id="f3343475-b796-4d85-96bb-374c4b5da93a" data-name="Layer 1" xmlns="http://www.w3.org/2000/svg" viewBox="0 0 665.06 692"><title>border</title><path d="M18.12,45.91c12,20.72,13.77,44.82,12.19,68.25-1.69,25-6.87,49.65-9.32,74.6-5.56,56.7.05,113.69,6,170.12q9.09,85.78,18.23,171.57c3,28.26,6.31,56.79,1.44,85-2.3,13.32-5.55,26.5-6.54,40-.79,10.79-1,25,8.54,32.23,5,3.83,11.53,4.67,17.62,5.49a148.85,148.85,0,0,0,20.35,1.24c13.71-.09,27.34-1.81,40.9-3.69s27-4,40.56-4.91a224.3,224.3,0,0,1,40.22,1c27.08,3,53.77,9.18,81,10.38,25.53,1.13,50-4.06,74.36-11.19,23.6-6.9,47.3-15.32,72-17.3a106.19,106.19,0,0,1,35.35,2.67c12.35,3.22,23.85,8.8,35.54,13.79,12.19,5.22,24.43,9.46,37.66,11.1,13.65,1.68,27.45.92,41.07-.63,12.92-1.46,26.07-3,38.77-5.83,11.65-2.61,22.6-7.26,31.62-15.21C672,660.4,679.93,638.52,682,617.45c2.64-27.09-4.59-54.1-10.79-80.22A991.18,991.18,0,0,1,646.3,370.94c-1.78-28-2.46-56.17-1.73-84.25.36-14,1.16-28,2.73-41.86,1.58-14.05,4.29-27.91,6.89-41.79a451,451,0,0,0,7.61-83.85c0-14-.46-28.08-1-42.11-.43-11.16,0-23.32-4.2-33.87a27.44,27.44,0,0,0-9-12.2c-4.75-3.51-10.46-4.35-16.16-5.07-13.31-1.69-26.53-4.48-39.78-6.6-22.33-3.58-44.73-6.77-67.21-9.27-29.93-3.33-60.17-5.6-90.3-4.18a337.26,337.26,0,0,0-56.41,7.67C361.2,17.18,344.82,21.36,328.1,24c-10,1.58-20.15,2.69-30.88,3.4-13.64.9-27.32,1.1-41,.86-18.08-.32-36.16-.77-54.25-.93-29.55-.26-59.1-.29-88.65.16-25.25.38-50.79.5-75.9,3.38-5.23.6-12.87.75-17.37,4-4.66,3.36-.17,11.17,4.54,7.77a7.08,7.08,0,0,1,.89-.51c.8-.44-.89.31-.34.14.22-.08.45-.18.68-.24,1.22-.34,2.42-.68,3.66-.94,1.59-.33,3.19-.58,4.8-.82.94-.14.66-.09.53-.07.49-.06,1-.13,1.47-.18,1.1-.14,2.21-.26,3.32-.38C50.69,38.5,61.83,38,73,37.54c29.57-1.17,59.17-1.36,88.76-1.37q36,0,72,.57c21,.36,42,1.08,63-.28a383.37,383.37,0,0,0,58-8.43c16.06-3.54,32-7.61,48.28-10.11,2.28-.35,4.52-.67,5.93-.85q3.53-.45,7.07-.82,7.79-.81,15.62-1.23c12.5-.68,25-.67,37.55-.23,38,1.34,75.77,6.29,113.26,12.14Q602,30,621.65,33.46c5.81,1,12.49,1,18,3.28,4.33,1.79,7.19,5.86,8.77,10.13,3.85,10.43,3.11,22.52,3.51,33.45.52,14,.93,28.06.87,42.1s-.57,28-1.89,42c-1.3,13.67-3.67,27.16-6.22,40.65A510.09,510.09,0,0,0,635.54,288,980.06,980.06,0,0,0,646,453.29q6,41.31,15.54,82c6.1,26.1,13.68,52.62,11.7,79.7-1.48,20.3-9.38,41.8-25.64,54.87-9.19,7.38-20.68,10.57-32.08,12.6-13,2.32-26.31,4.13-39.51,5.19-13.42,1.09-27.09,1.11-40.3-1.82-12.32-2.74-23.8-8-35.31-13s-23.21-9.8-35.68-11.86a123.83,123.83,0,0,0-35.5-.46c-24.18,3-47.26,11-70.58,17.75a294.7,294.7,0,0,1-35.91,8.42A172.68,172.68,0,0,1,284.46,688c-26.82-1.76-53.1-7.89-79.82-10.5a220.65,220.65,0,0,0-39.65-.42c-13.55,1.12-27,3.24-40.45,5.09s-26.85,3.39-40.37,3.28a129.57,129.57,0,0,1-19.77-1.55c-5.49-.9-11.06-2-13.55-7.6-2.25-5-2.12-11.08-1.94-16.47a143.18,143.18,0,0,1,2.38-20.43c2.37-13.23,5.37-26.32,6.39-39.76,2.14-27.89-2-55.95-5-83.64l-9.05-85.17C37.72,375,30.27,318.94,28.19,262.73c-1-28.12-.49-56.35,2.94-84.31,2.95-24,7.75-47.81,8.58-72,.77-22.5-2.36-45.3-13.82-65-2.91-5-10.69-.48-7.77,4.54Z" transform="translate(-17.48 -5.46)"/><path d="M170.85,103.84a1.5,1.5,0,0,0,0-3,1.5,1.5,0,0,0,0,3Z" transform="translate(-17.48 -5.46)"/><path d="M125.91,178.39a1.5,1.5,0,0,0,0-3,1.5,1.5,0,0,0,0,3Z" transform="translate(-17.48 -5.46)"/><path d="M96.3,299.93a1.5,1.5,0,0,0,0-3,1.5,1.5,0,0,0,0,3Z" transform="translate(-17.48 -5.46)"/><path d="M108.55,413.29a1.5,1.5,0,0,0,0-3,1.5,1.5,0,0,0,0,3Z" transform="translate(-17.48 -5.46)"/><path d="M103.45,568.52a1.5,1.5,0,0,0,0-3,1.5,1.5,0,0,0,0,3Z" transform="translate(-17.48 -5.46)"/><path d="M76.89,639a1.5,1.5,0,0,0,0-3,1.5,1.5,0,0,0,0,3Z" transform="translate(-17.48 -5.46)"/><path d="M132,641a1.5,1.5,0,0,0,0-3,1.5,1.5,0,0,0,0,3Z" transform="translate(-17.48 -5.46)"/><path d="M219.87,657.37a1.5,1.5,0,0,0,0-3,1.5,1.5,0,0,0,0,3Z" transform="translate(-17.48 -5.46)"/><path d="M285.23,647.16a1.5,1.5,0,0,0,0-3,1.5,1.5,0,0,0,0,3Z" transform="translate(-17.48 -5.46)"/><path d="M363.87,635.93a1.5,1.5,0,0,0,0-3,1.5,1.5,0,0,0,0,3Z" transform="translate(-17.48 -5.46)"/><path d="M460.89,632.86a1.5,1.5,0,0,0,0-3,1.5,1.5,0,0,0,0,3Z" transform="translate(-17.48 -5.46)"/><path d="M541.57,653.29a1.5,1.5,0,0,0,0-3,1.5,1.5,0,0,0,0,3Z" transform="translate(-17.48 -5.46)"/><path d="M613.06,650.22a1.5,1.5,0,0,0,0-3,1.5,1.5,0,0,0,0,3Z" transform="translate(-17.48 -5.46)"/><path d="M619.19,573.63a1.5,1.5,0,0,0,0-3,1.5,1.5,0,0,0,0,3Z" transform="translate(-17.48 -5.46)"/><path d="M551.79,476.61a1.5,1.5,0,0,0,0-3,1.5,1.5,0,0,0,0,3Z" transform="translate(-17.48 -5.46)"/><path d="M410.85,484.78a1.5,1.5,0,0,0,0-3,1.5,1.5,0,0,0,0,3Z" transform="translate(-17.48 -5.46)"/><path d="M299.53,552.18a1.5,1.5,0,0,0,0-3,1.5,1.5,0,0,0,0,3Z" transform="translate(-17.48 -5.46)"/><path d="M138.17,452.1a1.5,1.5,0,0,0,0-3,1.5,1.5,0,0,0,0,3Z" transform="translate(-17.48 -5.46)"/><path d="M212.72,276.44a1.5,1.5,0,0,0,0-3,1.5,1.5,0,0,0,0,3Z" transform="translate(-17.48 -5.46)"/><path d="M156.55,285.63a1.5,1.5,0,0,0,0-3,1.5,1.5,0,0,0,0,3Z" transform="translate(-17.48 -5.46)"/><path d="M100.38,225.37a1.5,1.5,0,0,0,0-3,1.5,1.5,0,0,0,0,3Z" transform="translate(-17.48 -5.46)"/><path d="M66.68,145.71a1.5,1.5,0,0,0,0-3,1.5,1.5,0,0,0,0,3Z" transform="translate(-17.48 -5.46)"/><path d="M84,75.24a1.5,1.5,0,0,0,0-3,1.5,1.5,0,0,0,0,3Z" transform="translate(-17.48 -5.46)"/><path d="M194.3,86l1,1a1.72,1.72,0,0,0,1.06.44,1.15,1.15,0,0,0,.58-.13,1,1,0,0,0,.48-.31l.24-.3a1.57,1.57,0,0,0,.2-.76l0-.4a1.49,1.49,0,0,0-.39-.66l-1-1a1,1,0,0,0-.48-.31,1.06,1.06,0,0,0-.58-.13,1.08,1.08,0,0,0-.58.13,1.14,1.14,0,0,0-.48.31l-.23.3a1.48,1.48,0,0,0-.21.76l.06.4a1.57,1.57,0,0,0,.38.66Z" transform="translate(-17.48 -5.46)"/><path d="M350.6,95.67a1.5,1.5,0,0,0,0-3,1.5,1.5,0,0,0,0,3Z" transform="translate(-17.48 -5.46)"/><path d="M401.66,64a1.5,1.5,0,0,0,0-3,1.5,1.5,0,0,0,0,3Z" transform="translate(-17.48 -5.46)"/><path d="M510.94,63a1.5,1.5,0,0,0,0-3,1.5,1.5,0,0,0,0,3Z" transform="translate(-17.48 -5.46)"/><path d="M582.43,79.33a1.5,1.5,0,0,0,0-3,1.5,1.5,0,0,0,0,3Z" transform="translate(-17.48 -5.46)"/><path d="M567.11,165.12a1.5,1.5,0,0,0,0-3,1.5,1.5,0,0,0,0,3Z" transform="translate(-17.48 -5.46)"/><path d="M408.81,154.9a1.5,1.5,0,0,0,0-3,1.5,1.5,0,0,0,0,3Z" transform="translate(-17.48 -5.46)"/><path d="M323,209a1.5,1.5,0,0,0,0-3,1.5,1.5,0,0,0,0,3Z" transform="translate(-17.48 -5.46)"/><path d="M312.81,334.65a1.5,1.5,0,0,0,0-3,1.5,1.5,0,0,0,0,3Z" transform="translate(-17.48 -5.46)"/><path d="M255.62,424.52a1.5,1.5,0,0,0,0-3,1.5,1.5,0,0,0,0,3Z" transform="translate(-17.48 -5.46)"/><path d="M435.36,377.54a1.5,1.5,0,0,0,0-3,1.5,1.5,0,0,0,0,3Z" transform="translate(-17.48 -5.46)"/><path d="M483.36,461.29a1.5,1.5,0,0,0,0-3,1.5,1.5,0,0,0,0,3Z" transform="translate(-17.48 -5.46)"/><path d="M533.4,515.41a1.5,1.5,0,0,0,0-3,1.5,1.5,0,0,0,0,3Z" transform="translate(-17.48 -5.46)"/><path d="M579.36,518.48a1.5,1.5,0,0,0,0-3,1.5,1.5,0,0,0,0,3Z" transform="translate(-17.48 -5.46)"/><path d="M573.23,385.71a1.5,1.5,0,0,0,0-3,1.5,1.5,0,0,0,0,3Z" transform="translate(-17.48 -5.46)"/><path d="M526.26,364.27a1.5,1.5,0,0,0,0-3,1.5,1.5,0,0,0,0,3Z" transform="translate(-17.48 -5.46)"/><path d="M506.85,301a1.5,1.5,0,0,0,0-3,1.5,1.5,0,0,0,0,3Z" transform="translate(-17.48 -5.46)"/><path d="M412.89,327.5a1.5,1.5,0,0,0,0-3,1.5,1.5,0,0,0,0,3Z" transform="translate(-17.48 -5.46)"/><path d="M358.77,247.84a1.5,1.5,0,0,0,0-3,1.5,1.5,0,0,0,0,3Z" transform="translate(-17.48 -5.46)"/><path d="M447.62,224.35a1.5,1.5,0,0,0,0-3,1.5,1.5,0,0,0,0,3Z" transform="translate(-17.48 -5.46)"/><path d="M477.23,174.31a1.5,1.5,0,0,0,0-3,1.5,1.5,0,0,0,0,3Z" transform="translate(-17.48 -5.46)"/><path d="M486.43,124.27a1.5,1.5,0,0,0,0-3,1.5,1.5,0,0,0,0,3Z" transform="translate(-17.48 -5.46)"/><path d="M417,120.18a1.5,1.5,0,0,0,0-3,1.5,1.5,0,0,0,0,3Z" transform="translate(-17.48 -5.46)"/><path d="M286.26,165.12a1.5,1.5,0,0,0,0-3,1.5,1.5,0,0,0,0,3Z" transform="translate(-17.48 -5.46)"/><path d="M204.55,165.12a1.5,1.5,0,0,0,0-3,1.5,1.5,0,0,0,0,3Z" transform="translate(-17.48 -5.46)"/><path d="M244.38,118.14a1.5,1.5,0,0,0,0-3,1.5,1.5,0,0,0,0,3Z" transform="translate(-17.48 -5.46)"/><path d="M282.17,85.46a1.5,1.5,0,0,0,0-3,1.5,1.5,0,0,0,0,3Z" transform="translate(-17.48 -5.46)"/><path d="M550.77,43.59a1.5,1.5,0,0,0,0-3,1.5,1.5,0,0,0,0,3Z" transform="translate(-17.48 -5.46)"/><path d="M611,63a1.5,1.5,0,0,0,0-3,1.5,1.5,0,0,0,0,3Z" transform="translate(-17.48 -5.46)"/><path d="M618.17,166.14a1.5,1.5,0,0,0,0-3,1.5,1.5,0,0,0,0,3Z" transform="translate(-17.48 -5.46)"/><path d="M609,297.88a1.5,1.5,0,0,0,0-3,1.5,1.5,0,0,0,0,3Z" transform="translate(-17.48 -5.46)"/><path d="M560,265.2a1.5,1.5,0,0,0,0-3,1.5,1.5,0,0,0,0,3Z" transform="translate(-17.48 -5.46)"/><path d="M475.19,267.24a1.5,1.5,0,0,0,0-3,1.5,1.5,0,0,0,0,3Z" transform="translate(-17.48 -5.46)"/><path d="M420,281.54a1.5,1.5,0,0,0,0-3,1.5,1.5,0,0,0,0,3Z" transform="translate(-17.48 -5.46)"/><path d="M360.81,193.71a1.5,1.5,0,0,0,0-3,1.5,1.5,0,0,0,0,3Z" transform="translate(-17.48 -5.46)"/><path d="M630.43,486.82a1.5,1.5,0,0,0,0-3,1.5,1.5,0,0,0,0,3Z" transform="translate(-17.48 -5.46)"/><path d="M625.32,456.18a1.5,1.5,0,0,0,0-3,1.5,1.5,0,0,0,0,3Z" transform="translate(-17.48 -5.46)"/><path d="M550.77,421.46a1.5,1.5,0,0,0,0-3,1.5,1.5,0,0,0,0,3Z" transform="translate(-17.48 -5.46)"/><path d="M490.51,421.46a1.5,1.5,0,0,0,0-3,1.5,1.5,0,0,0,0,3Z" transform="translate(-17.48 -5.46)"/><path d="M370,419.41a1.5,1.5,0,0,0,0-3,1.5,1.5,0,0,0,0,3Z" transform="translate(-17.48 -5.46)"/><path d="M317.91,465.37a1.5,1.5,0,0,0,0-3,1.5,1.5,0,0,0,0,3Z" transform="translate(-17.48 -5.46)"/><path d="M201.49,516.44a1.5,1.5,0,0,0,0-3,1.5,1.5,0,0,0,0,3Z" transform="translate(-17.48 -5.46)"/><path d="M182.09,594.05a1.5,1.5,0,0,0,0-3,1.5,1.5,0,0,0,0,3Z" transform="translate(-17.48 -5.46)"/><path d="M122.85,537.88a1.5,1.5,0,0,0,0-3,1.5,1.5,0,0,0,0,3Z" transform="translate(-17.48 -5.46)"/><path d="M71.79,514.39a1.5,1.5,0,0,0,0-3,1.5,1.5,0,0,0,0,3Z" transform="translate(-17.48 -5.46)"/><path d="M67.7,468.44a1.5,1.5,0,0,0,0-3,1.5,1.5,0,0,0,0,3Z" transform="translate(-17.48 -5.46)"/><path d="M61.57,387.76a1.5,1.5,0,0,0,0-3,1.5,1.5,0,0,0,0,3Z" transform="translate(-17.48 -5.46)"/><path d="M48.3,249.88a1.5,1.5,0,0,0,0-3,1.5,1.5,0,0,0,0,3Z" transform="translate(-17.48 -5.46)"/><path d="M142.26,383.67a1.5,1.5,0,0,0,0-3,1.5,1.5,0,0,0,0,3Z" transform="translate(-17.48 -5.46)"/><path d="M229.06,465.37a1.5,1.5,0,0,0,0-3,1.5,1.5,0,0,0,0,3Z" transform="translate(-17.48 -5.46)"/><path d="M317.91,514.39a1.5,1.5,0,0,0,0-3,1.5,1.5,0,0,0,0,3Z" transform="translate(-17.48 -5.46)"/><path d="M449.66,523.59a1.5,1.5,0,0,0,0-3,1.5,1.5,0,0,0,0,3Z" transform="translate(-17.48 -5.46)"/><path d="M525.23,545a1.5,1.5,0,0,0,0-3,1.5,1.5,0,0,0,0,3Z" transform="translate(-17.48 -5.46)"/><path d="M555.87,619.59a1.5,1.5,0,0,0,0-3,1.5,1.5,0,0,0,0,3Z" transform="translate(-17.48 -5.46)"/><path d="M634.51,619.59a1.5,1.5,0,0,0,0-3,1.5,1.5,0,0,0,0,3Z" transform="translate(-17.48 -5.46)"/><path d="M617.15,548.1a1.5,1.5,0,0,0,0-3,1.5,1.5,0,0,0,0,3Z" transform="translate(-17.48 -5.46)"/><path d="M567.11,570.56a1.5,1.5,0,0,0,0-3,1.5,1.5,0,0,0,0,3Z" transform="translate(-17.48 -5.46)"/><path d="M420,560.35a1.5,1.5,0,0,0,0-3,1.5,1.5,0,0,0,0,3Z" transform="translate(-17.48 -5.46)"/><path d="M352.64,574.65a1.5,1.5,0,0,0,0-3,1.5,1.5,0,0,0,0,3Z" transform="translate(-17.48 -5.46)"/><path d="M247.45,586.9a1.5,1.5,0,0,0,0-3,1.5,1.5,0,0,0,0,3Z" transform="translate(-17.48 -5.46)"/><path d="M263.79,495a1.5,1.5,0,0,0,0-3,1.5,1.5,0,0,0,0,3Z" transform="translate(-17.48 -5.46)"/><path d="M203.53,381.63a1.5,1.5,0,0,0,0-3,1.5,1.5,0,0,0,0,3Z" transform="translate(-17.48 -5.46)"/><path d="M241.32,359.16a1.5,1.5,0,0,0,0-3,1.5,1.5,0,0,0,0,3Z" transform="translate(-17.48 -5.46)"/><path d="M249.49,278.48a1.5,1.5,0,0,0,0-3,1.5,1.5,0,0,0,0,3Z" transform="translate(-17.48 -5.46)"/><path d="M189.23,239.67a1.5,1.5,0,0,0,0-3,1.5,1.5,0,0,0,0,3Z" transform="translate(-17.48 -5.46)"/><path d="M365.91,292.78a1.5,1.5,0,0,0,0-3,1.5,1.5,0,0,0,0,3Z" transform="translate(-17.48 -5.46)"/><path d="M397.57,385.71a1.5,1.5,0,0,0,0-3,1.5,1.5,0,0,0,0,3Z" transform="translate(-17.48 -5.46)"/><path d="M488,597l1,4.08a1.52,1.52,0,0,0,1.85,1,1.54,1.54,0,0,0,1-1.85l-1-4.08a1.5,1.5,0,0,0-2.9.8Z" transform="translate(-17.48 -5.46)"/><path d="M510.94,225.37a1.5,1.5,0,0,0,0-3,1.5,1.5,0,0,0,0,3Z" transform="translate(-17.48 -5.46)"/><path d="M285.23,203.93a1.5,1.5,0,0,0,0-3,1.5,1.5,0,0,0,0,3Z" transform="translate(-17.48 -5.46)"/></svg>