<svg id="f57f7eee-cb8c-4ec3-93f7-fabad71d8939" data-name="Layer 1" xmlns="http://www.w3.org/2000/svg" viewBox="0 0 652.68 682.95"><title>border3</title><path d="M170.85,103.84a1.5,1.5,0,0,0,0-3,1.5,1.5,0,0,0,0,3Z" transform="translate(-22.71 -4.15)"/><path d="M125.91,178.39a1.5,1.5,0,0,0,0-3,1.5,1.5,0,0,0,0,3Z" transform="translate(-22.71 -4.15)"/><path d="M96.3,299.93a1.5,1.5,0,0,0,0-3,1.5,1.5,0,0,0,0,3Z" transform="translate(-22.71 -4.15)"/><path d="M108.55,413.29a1.5,1.5,0,0,0,0-3,1.5,1.5,0,0,0,0,3Z" transform="translate(-22.71 -4.15)"/><path d="M103.45,568.52a1.5,1.5,0,0,0,0-3,1.5,1.5,0,0,0,0,3Z" transform="translate(-22.71 -4.15)"/><path d="M76.89,639a1.5,1.5,0,0,0,0-3,1.5,1.5,0,0,0,0,3Z" transform="translate(-22.71 -4.15)"/><path d="M132,641a1.5,1.5,0,0,0,0-3,1.5,1.5,0,0,0,0,3Z" transform="translate(-22.71 -4.15)"/><path d="M219.87,657.37a1.5,1.5,0,0,0,0-3,1.5,1.5,0,0,0,0,3Z" transform="translate(-22.71 -4.15)"/><path d="M285.23,647.16a1.5,1.5,0,0,0,0-3,1.5,1.5,0,0,0,0,3Z" transform="translate(-22.71 -4.15)"/><path d="M363.87,635.93a1.5,1.5,0,0,0,0-3,1.5,1.5,0,0,0,0,3Z" transform="translate(-22.71 -4.15)"/><path d="M460.89,632.86a1.5,1.5,0,0,0,0-3,1.5,1.5,0,0,0,0,3Z" transform="translate(-22.71 -4.15)"/><path d="M541.57,653.29a1.5,1.5,0,0,0,0-3,1.5,1.5,0,0,0,0,3Z" transform="translate(-22.71 -4.15)"/><path d="M613.06,650.22a1.5,1.5,0,0,0,0-3,1.5,1.5,0,0,0,0,3Z" transform="translate(-22.71 -4.15)"/><path d="M619.19,573.63a1.5,1.5,0,0,0,0-3,1.5,1.5,0,0,0,0,3Z" transform="translate(-22.71 -4.15)"/><path d="M551.79,476.61a1.5,1.5,0,0,0,0-3,1.5,1.5,0,0,0,0,3Z" transform="translate(-22.71 -4.15)"/><path d="M410.85,484.78a1.5,1.5,0,0,0,0-3,1.5,1.5,0,0,0,0,3Z" transform="translate(-22.71 -4.15)"/><path d="M299.53,552.18a1.5,1.5,0,0,0,0-3,1.5,1.5,0,0,0,0,3Z" transform="translate(-22.71 -4.15)"/><path d="M138.17,452.1a1.5,1.5,0,0,0,0-3,1.5,1.5,0,0,0,0,3Z" transform="translate(-22.71 -4.15)"/><path d="M212.72,276.44a1.5,1.5,0,0,0,0-3,1.5,1.5,0,0,0,0,3Z" transform="translate(-22.71 -4.15)"/><path d="M156.55,285.63a1.5,1.5,0,0,0,0-3,1.5,1.5,0,0,0,0,3Z" transform="translate(-22.71 -4.15)"/><path d="M100.38,225.37a1.5,1.5,0,0,0,0-3,1.5,1.5,0,0,0,0,3Z" transform="translate(-22.71 -4.15)"/><path d="M66.68,145.71a1.5,1.5,0,0,0,0-3,1.5,1.5,0,0,0,0,3Z" transform="translate(-22.71 -4.15)"/><path d="M84,75.24a1.5,1.5,0,0,0,0-3,1.5,1.5,0,0,0,0,3Z" transform="translate(-22.71 -4.15)"/><path d="M194.3,86l1,1a1.72,1.72,0,0,0,1.06.44,1.15,1.15,0,0,0,.58-.13,1,1,0,0,0,.48-.31l.24-.3a1.57,1.57,0,0,0,.2-.76l0-.4a1.49,1.49,0,0,0-.39-.66l-1-1a1,1,0,0,0-.48-.31,1.06,1.06,0,0,0-.58-.13,1.08,1.08,0,0,0-.58.13,1.14,1.14,0,0,0-.48.31l-.23.3a1.48,1.48,0,0,0-.21.76l.06.4a1.57,1.57,0,0,0,.38.66Z" transform="translate(-22.71 -4.15)"/><path d="M350.6,95.67a1.5,1.5,0,0,0,0-3,1.5,1.5,0,0,0,0,3Z" transform="translate(-22.71 -4.15)"/><path d="M401.66,64a1.5,1.5,0,0,0,0-3,1.5,1.5,0,0,0,0,3Z" transform="translate(-22.71 -4.15)"/><path d="M510.94,63a1.5,1.5,0,0,0,0-3,1.5,1.5,0,0,0,0,3Z" transform="translate(-22.71 -4.15)"/><path d="M582.43,79.33a1.5,1.5,0,0,0,0-3,1.5,1.5,0,0,0,0,3Z" transform="translate(-22.71 -4.15)"/><path d="M567.11,165.12a1.5,1.5,0,0,0,0-3,1.5,1.5,0,0,0,0,3Z" transform="translate(-22.71 -4.15)"/><path d="M408.81,154.9a1.5,1.5,0,0,0,0-3,1.5,1.5,0,0,0,0,3Z" transform="translate(-22.71 -4.15)"/><path d="M323,209a1.5,1.5,0,0,0,0-3,1.5,1.5,0,0,0,0,3Z" transform="translate(-22.71 -4.15)"/><path d="M312.81,334.65a1.5,1.5,0,0,0,0-3,1.5,1.5,0,0,0,0,3Z" transform="translate(-22.71 -4.15)"/><path d="M255.62,424.52a1.5,1.5,0,0,0,0-3,1.5,1.5,0,0,0,0,3Z" transform="translate(-22.71 -4.15)"/><path d="M435.36,377.54a1.5,1.5,0,0,0,0-3,1.5,1.5,0,0,0,0,3Z" transform="translate(-22.71 -4.15)"/><path d="M483.36,461.29a1.5,1.5,0,0,0,0-3,1.5,1.5,0,0,0,0,3Z" transform="translate(-22.71 -4.15)"/><path d="M533.4,515.41a1.5,1.5,0,0,0,0-3,1.5,1.5,0,0,0,0,3Z" transform="translate(-22.71 -4.15)"/><path d="M579.36,518.48a1.5,1.5,0,0,0,0-3,1.5,1.5,0,0,0,0,3Z" transform="translate(-22.71 -4.15)"/><path d="M573.23,385.71a1.5,1.5,0,0,0,0-3,1.5,1.5,0,0,0,0,3Z" transform="translate(-22.71 -4.15)"/><path d="M526.26,364.27a1.5,1.5,0,0,0,0-3,1.5,1.5,0,0,0,0,3Z" transform="translate(-22.71 -4.15)"/><path d="M506.85,301a1.5,1.5,0,0,0,0-3,1.5,1.5,0,0,0,0,3Z" transform="translate(-22.71 -4.15)"/><path d="M412.89,327.5a1.5,1.5,0,0,0,0-3,1.5,1.5,0,0,0,0,3Z" transform="translate(-22.71 -4.15)"/><path d="M358.77,247.84a1.5,1.5,0,0,0,0-3,1.5,1.5,0,0,0,0,3Z" transform="translate(-22.71 -4.15)"/><path d="M447.62,224.35a1.5,1.5,0,0,0,0-3,1.5,1.5,0,0,0,0,3Z" transform="translate(-22.71 -4.15)"/><path d="M477.23,174.31a1.5,1.5,0,0,0,0-3,1.5,1.5,0,0,0,0,3Z" transform="translate(-22.71 -4.15)"/><path d="M486.43,124.27a1.5,1.5,0,0,0,0-3,1.5,1.5,0,0,0,0,3Z" transform="translate(-22.71 -4.15)"/><path d="M417,120.18a1.5,1.5,0,0,0,0-3,1.5,1.5,0,0,0,0,3Z" transform="translate(-22.71 -4.15)"/><path d="M286.26,165.12a1.5,1.5,0,0,0,0-3,1.5,1.5,0,0,0,0,3Z" transform="translate(-22.71 -4.15)"/><path d="M204.55,165.12a1.5,1.5,0,0,0,0-3,1.5,1.5,0,0,0,0,3Z" transform="translate(-22.71 -4.15)"/><path d="M244.38,118.14a1.5,1.5,0,0,0,0-3,1.5,1.5,0,0,0,0,3Z" transform="translate(-22.71 -4.15)"/><path d="M282.17,85.46a1.5,1.5,0,0,0,0-3,1.5,1.5,0,0,0,0,3Z" transform="translate(-22.71 -4.15)"/><path d="M550.77,43.59a1.5,1.5,0,0,0,0-3,1.5,1.5,0,0,0,0,3Z" transform="translate(-22.71 -4.15)"/><path d="M609,297.88a1.5,1.5,0,0,0,0-3,1.5,1.5,0,0,0,0,3Z" transform="translate(-22.71 -4.15)"/><path d="M560,265.2a1.5,1.5,0,0,0,0-3,1.5,1.5,0,0,0,0,3Z" transform="translate(-22.71 -4.15)"/><path d="M475.19,267.24a1.5,1.5,0,0,0,0-3,1.5,1.5,0,0,0,0,3Z" transform="translate(-22.71 -4.15)"/><path d="M420,281.54a1.5,1.5,0,0,0,0-3,1.5,1.5,0,0,0,0,3Z" transform="translate(-22.71 -4.15)"/><path d="M360.81,193.71a1.5,1.5,0,0,0,0-3,1.5,1.5,0,0,0,0,3Z" transform="translate(-22.71 -4.15)"/><path d="M630.43,486.82a1.5,1.5,0,0,0,0-3,1.5,1.5,0,0,0,0,3Z" transform="translate(-22.71 -4.15)"/><path d="M625.32,456.18a1.5,1.5,0,0,0,0-3,1.5,1.5,0,0,0,0,3Z" transform="translate(-22.71 -4.15)"/><path d="M550.77,421.46a1.5,1.5,0,0,0,0-3,1.5,1.5,0,0,0,0,3Z" transform="translate(-22.71 -4.15)"/><path d="M490.51,421.46a1.5,1.5,0,0,0,0-3,1.5,1.5,0,0,0,0,3Z" transform="translate(-22.71 -4.15)"/><path d="M370,419.41a1.5,1.5,0,0,0,0-3,1.5,1.5,0,0,0,0,3Z" transform="translate(-22.71 -4.15)"/><path d="M317.91,465.37a1.5,1.5,0,0,0,0-3,1.5,1.5,0,0,0,0,3Z" transform="translate(-22.71 -4.15)"/><path d="M201.49,516.44a1.5,1.5,0,0,0,0-3,1.5,1.5,0,0,0,0,3Z" transform="translate(-22.71 -4.15)"/><path d="M182.09,594.05a1.5,1.5,0,0,0,0-3,1.5,1.5,0,0,0,0,3Z" transform="translate(-22.71 -4.15)"/><path d="M122.85,537.88a1.5,1.5,0,0,0,0-3,1.5,1.5,0,0,0,0,3Z" transform="translate(-22.71 -4.15)"/><path d="M71.79,514.39a1.5,1.5,0,0,0,0-3,1.5,1.5,0,0,0,0,3Z" transform="translate(-22.71 -4.15)"/><path d="M67.7,468.44a1.5,1.5,0,0,0,0-3,1.5,1.5,0,0,0,0,3Z" transform="translate(-22.71 -4.15)"/><path d="M61.57,387.76a1.5,1.5,0,0,0,0-3,1.5,1.5,0,0,0,0,3Z" transform="translate(-22.71 -4.15)"/><path d="M48.3,249.88a1.5,1.5,0,0,0,0-3,1.5,1.5,0,0,0,0,3Z" transform="translate(-22.71 -4.15)"/><path d="M142.26,383.67a1.5,1.5,0,0,0,0-3,1.5,1.5,0,0,0,0,3Z" transform="translate(-22.71 -4.15)"/><path d="M229.06,465.37a1.5,1.5,0,0,0,0-3,1.5,1.5,0,0,0,0,3Z" transform="translate(-22.71 -4.15)"/><path d="M317.91,514.39a1.5,1.5,0,0,0,0-3,1.5,1.5,0,0,0,0,3Z" transform="translate(-22.71 -4.15)"/><path d="M449.66,523.59a1.5,1.5,0,0,0,0-3,1.5,1.5,0,0,0,0,3Z" transform="translate(-22.71 -4.15)"/><path d="M525.23,545a1.5,1.5,0,0,0,0-3,1.5,1.5,0,0,0,0,3Z" transform="translate(-22.71 -4.15)"/><path d="M555.87,619.59a1.5,1.5,0,0,0,0-3,1.5,1.5,0,0,0,0,3Z" transform="translate(-22.71 -4.15)"/><path d="M634.51,619.59a1.5,1.5,0,0,0,0-3,1.5,1.5,0,0,0,0,3Z" transform="translate(-22.71 -4.15)"/><path d="M617.15,548.1a1.5,1.5,0,0,0,0-3,1.5,1.5,0,0,0,0,3Z" transform="translate(-22.71 -4.15)"/><path d="M567.11,570.56a1.5,1.5,0,0,0,0-3,1.5,1.5,0,0,0,0,3Z" transform="translate(-22.71 -4.15)"/><path d="M420,560.35a1.5,1.5,0,0,0,0-3,1.5,1.5,0,0,0,0,3Z" transform="translate(-22.71 -4.15)"/><path d="M352.64,574.65a1.5,1.5,0,0,0,0-3,1.5,1.5,0,0,0,0,3Z" transform="translate(-22.71 -4.15)"/><path d="M247.45,586.9a1.5,1.5,0,0,0,0-3,1.5,1.5,0,0,0,0,3Z" transform="translate(-22.71 -4.15)"/><path d="M263.79,495a1.5,1.5,0,0,0,0-3,1.5,1.5,0,0,0,0,3Z" transform="translate(-22.71 -4.15)"/><path d="M203.53,381.63a1.5,1.5,0,0,0,0-3,1.5,1.5,0,0,0,0,3Z" transform="translate(-22.71 -4.15)"/><path d="M241.32,359.16a1.5,1.5,0,0,0,0-3,1.5,1.5,0,0,0,0,3Z" transform="translate(-22.71 -4.15)"/><path d="M249.49,278.48a1.5,1.5,0,0,0,0-3,1.5,1.5,0,0,0,0,3Z" transform="translate(-22.71 -4.15)"/><path d="M189.23,239.67a1.5,1.5,0,0,0,0-3,1.5,1.5,0,0,0,0,3Z" transform="translate(-22.71 -4.15)"/><path d="M365.91,292.78a1.5,1.5,0,0,0,0-3,1.5,1.5,0,0,0,0,3Z" transform="translate(-22.71 -4.15)"/><path d="M397.57,385.71a1.5,1.5,0,0,0,0-3,1.5,1.5,0,0,0,0,3Z" transform="translate(-22.71 -4.15)"/><path d="M488,597l1,4.08a1.52,1.52,0,0,0,1.85,1,1.54,1.54,0,0,0,1-1.85l-1-4.08a1.5,1.5,0,0,0-2.9.8Z" transform="translate(-22.71 -4.15)"/><path d="M510.94,225.37a1.5,1.5,0,0,0,0-3,1.5,1.5,0,0,0,0,3Z" transform="translate(-22.71 -4.15)"/><path d="M285.23,203.93a1.5,1.5,0,0,0,0-3,1.5,1.5,0,0,0,0,3Z" transform="translate(-22.71 -4.15)"/><path d="M24.16,17.62l2.08,132.12,1,65.39c.34,21.38-.34,43.12,3.2,64.27s10.59,41.39,13.2,62.7c2.54,20.78,2.64,41.77,1.61,62.65-1,21.07-3.22,42.07-5.31,63.05l-6.45,64.79-6.44,64.78-3.29,33c-.93,9.32-3.17,19.86,4,27.37,5.58,5.84,14.24,7.65,21.71,9.74,10.35,2.88,20.73,5.72,31.19,8.23,20.3,4.89,41.06,8.62,62,9,20.5.4,40.51-3.28,60.37-8s39.88-10.33,60.43-11.52c20.85-1.19,41.32,2.86,61.63,7s40.74,7.53,61.55,8.73c41.53,2.39,83.06-1.46,124.58-2.23,21.11-.39,42.28,0,63.27,2.45,19.68,2.29,41,9.72,60.64,3.43,15.5-5,26.89-17.92,33.18-32.55,7.83-18.23,7.62-38.49,6.47-57.94-2.59-43.76-5-87.5-6.74-131.31-3.38-87.43-4.9-174.91-6.9-262.38q-.74-32.64-1.61-65.27-.45-16-.93-32c-.29-9.57-.29-19.23-1.42-28.74-1-8.45-2.83-16.92-7.15-24.35s-11.16-13-18.83-17C614.3,24.3,595.36,18.7,576.69,15.06,538.34,7.57,499,8.63,460.18,11.37c-41,2.89-81.86,6.83-123,8Q272.1,21.28,207,17.13q-32.16-2.05-64.21-5.59c-19.76-2.18-39.49-5.75-59.33-7.07-17-1.14-34.76.42-49.28,10.08-4.8,3.19-.3,11,4.54,7.77,14.87-9.89,33-10,50.21-8.41,19.74,1.87,39.37,5.1,59.09,7.2q62.79,6.67,126,7.69,63.79,1,127.5-3.75c38.24-2.88,76.47-7.16,114.87-6.71,19.2.23,38.43,1.64,57.3,5.28,18.09,3.49,36.55,8.72,52.95,17.28,7.65,4,13.84,9.27,17.4,17.28,3.27,7.34,4.26,15.58,4.76,23.52,1.28,20.43,1.38,41,1.92,61.47,2.28,85.69,3.6,171.41,6.17,257.09,1.29,43.05,2.89,86.09,5.09,129.11,1.08,21.18,2.41,42.34,3.7,63.5,1.15,18.75,2,39-6,56.47-6.87,15.08-19.52,27.25-36.69,28.49-10.05.73-20-1.24-29.85-2.93s-20-3-30.06-3.83c-40.6-3.37-81.33,0-121.95,1.24-20.71.64-41.47.76-62.14-.84-20.43-1.57-40.29-5.69-60.35-9.68-19.82-3.94-39.89-7-60.15-5.19-19.67,1.75-38.77,6.9-57.92,11.47-19.77,4.73-39.48,8.26-59.89,7.67-20.8-.61-41.31-4.58-61.45-9.57-10-2.49-20-5.24-29.91-8-6.48-1.82-16.34-3.7-17.62-11.7-.76-4.73.4-10,.87-14.72l1.58-15.86,3.15-31.73q6.38-64,12.74-128.07c4-40.78,7.54-82,1.34-122.77-3.09-20.3-10.11-39.79-12.91-60.12-2.93-21.31-2.05-43.28-2.39-64.73l-2-128.12-1-62.72c-.09-5.79-9.09-5.81-9,0Z" transform="translate(-22.71 -4.15)"/></svg>