<svg id="b27c9524-4124-48ec-9de2-8533a1ec6425" data-name="Layer 1" xmlns="http://www.w3.org/2000/svg" viewBox="0 0 688.5 697.18"><title>border5</title><path d="M170.85,103.84a1.5,1.5,0,0,0,0-3,1.5,1.5,0,0,0,0,3Z" transform="translate(-2.01 -4.32)"/><path d="M125.91,178.39a1.5,1.5,0,0,0,0-3,1.5,1.5,0,0,0,0,3Z" transform="translate(-2.01 -4.32)"/><path d="M96.3,299.93a1.5,1.5,0,0,0,0-3,1.5,1.5,0,0,0,0,3Z" transform="translate(-2.01 -4.32)"/><path d="M108.55,413.29a1.5,1.5,0,0,0,0-3,1.5,1.5,0,0,0,0,3Z" transform="translate(-2.01 -4.32)"/><path d="M103.45,568.52a1.5,1.5,0,0,0,0-3,1.5,1.5,0,0,0,0,3Z" transform="translate(-2.01 -4.32)"/><path d="M76.89,639a1.5,1.5,0,0,0,0-3,1.5,1.5,0,0,0,0,3Z" transform="translate(-2.01 -4.32)"/><path d="M132,641a1.5,1.5,0,0,0,0-3,1.5,1.5,0,0,0,0,3Z" transform="translate(-2.01 -4.32)"/><path d="M219.87,657.37a1.5,1.5,0,0,0,0-3,1.5,1.5,0,0,0,0,3Z" transform="translate(-2.01 -4.32)"/><path d="M285.23,647.16a1.5,1.5,0,0,0,0-3,1.5,1.5,0,0,0,0,3Z" transform="translate(-2.01 -4.32)"/><path d="M363.87,635.93a1.5,1.5,0,0,0,0-3,1.5,1.5,0,0,0,0,3Z" transform="translate(-2.01 -4.32)"/><path d="M460.89,632.86a1.5,1.5,0,0,0,0-3,1.5,1.5,0,0,0,0,3Z" transform="translate(-2.01 -4.32)"/><path d="M541.57,653.29a1.5,1.5,0,0,0,0-3,1.5,1.5,0,0,0,0,3Z" transform="translate(-2.01 -4.32)"/><path d="M613.06,650.22a1.5,1.5,0,0,0,0-3,1.5,1.5,0,0,0,0,3Z" transform="translate(-2.01 -4.32)"/><path d="M619.19,573.63a1.5,1.5,0,0,0,0-3,1.5,1.5,0,0,0,0,3Z" transform="translate(-2.01 -4.32)"/><path d="M551.79,476.61a1.5,1.5,0,0,0,0-3,1.5,1.5,0,0,0,0,3Z" transform="translate(-2.01 -4.32)"/><path d="M410.85,484.78a1.5,1.5,0,0,0,0-3,1.5,1.5,0,0,0,0,3Z" transform="translate(-2.01 -4.32)"/><path d="M299.53,552.18a1.5,1.5,0,0,0,0-3,1.5,1.5,0,0,0,0,3Z" transform="translate(-2.01 -4.32)"/><path d="M138.17,452.1a1.5,1.5,0,0,0,0-3,1.5,1.5,0,0,0,0,3Z" transform="translate(-2.01 -4.32)"/><path d="M212.72,276.44a1.5,1.5,0,0,0,0-3,1.5,1.5,0,0,0,0,3Z" transform="translate(-2.01 -4.32)"/><path d="M156.55,285.63a1.5,1.5,0,0,0,0-3,1.5,1.5,0,0,0,0,3Z" transform="translate(-2.01 -4.32)"/><path d="M100.38,225.37a1.5,1.5,0,0,0,0-3,1.5,1.5,0,0,0,0,3Z" transform="translate(-2.01 -4.32)"/><path d="M66.68,145.71a1.5,1.5,0,0,0,0-3,1.5,1.5,0,0,0,0,3Z" transform="translate(-2.01 -4.32)"/><path d="M84,75.24a1.5,1.5,0,0,0,0-3,1.5,1.5,0,0,0,0,3Z" transform="translate(-2.01 -4.32)"/><path d="M194.3,86l1,1a1.72,1.72,0,0,0,1.06.44,1.15,1.15,0,0,0,.58-.13,1,1,0,0,0,.48-.31l.24-.3a1.57,1.57,0,0,0,.2-.76l0-.4a1.49,1.49,0,0,0-.39-.66l-1-1a1,1,0,0,0-.48-.31,1.06,1.06,0,0,0-.58-.13,1.08,1.08,0,0,0-.58.13,1.14,1.14,0,0,0-.48.31l-.23.3a1.48,1.48,0,0,0-.21.76l.06.4a1.57,1.57,0,0,0,.38.66Z" transform="translate(-2.01 -4.32)"/><path d="M350.6,95.67a1.5,1.5,0,0,0,0-3,1.5,1.5,0,0,0,0,3Z" transform="translate(-2.01 -4.32)"/><path d="M401.66,64a1.5,1.5,0,0,0,0-3,1.5,1.5,0,0,0,0,3Z" transform="translate(-2.01 -4.32)"/><path d="M510.94,63a1.5,1.5,0,0,0,0-3,1.5,1.5,0,0,0,0,3Z" transform="translate(-2.01 -4.32)"/><path d="M582.43,79.33a1.5,1.5,0,0,0,0-3,1.5,1.5,0,0,0,0,3Z" transform="translate(-2.01 -4.32)"/><path d="M567.11,165.12a1.5,1.5,0,0,0,0-3,1.5,1.5,0,0,0,0,3Z" transform="translate(-2.01 -4.32)"/><path d="M408.81,154.9a1.5,1.5,0,0,0,0-3,1.5,1.5,0,0,0,0,3Z" transform="translate(-2.01 -4.32)"/><path d="M323,209a1.5,1.5,0,0,0,0-3,1.5,1.5,0,0,0,0,3Z" transform="translate(-2.01 -4.32)"/><path d="M312.81,334.65a1.5,1.5,0,0,0,0-3,1.5,1.5,0,0,0,0,3Z" transform="translate(-2.01 -4.32)"/><path d="M255.62,424.52a1.5,1.5,0,0,0,0-3,1.5,1.5,0,0,0,0,3Z" transform="translate(-2.01 -4.32)"/><path d="M435.36,377.54a1.5,1.5,0,0,0,0-3,1.5,1.5,0,0,0,0,3Z" transform="translate(-2.01 -4.32)"/><path d="M483.36,461.29a1.5,1.5,0,0,0,0-3,1.5,1.5,0,0,0,0,3Z" transform="translate(-2.01 -4.32)"/><path d="M533.4,515.41a1.5,1.5,0,0,0,0-3,1.5,1.5,0,0,0,0,3Z" transform="translate(-2.01 -4.32)"/><path d="M579.36,518.48a1.5,1.5,0,0,0,0-3,1.5,1.5,0,0,0,0,3Z" transform="translate(-2.01 -4.32)"/><path d="M573.23,385.71a1.5,1.5,0,0,0,0-3,1.5,1.5,0,0,0,0,3Z" transform="translate(-2.01 -4.32)"/><path d="M526.26,364.27a1.5,1.5,0,0,0,0-3,1.5,1.5,0,0,0,0,3Z" transform="translate(-2.01 -4.32)"/><path d="M506.85,301a1.5,1.5,0,0,0,0-3,1.5,1.5,0,0,0,0,3Z" transform="translate(-2.01 -4.32)"/><path d="M412.89,327.5a1.5,1.5,0,0,0,0-3,1.5,1.5,0,0,0,0,3Z" transform="translate(-2.01 -4.32)"/><path d="M358.77,247.84a1.5,1.5,0,0,0,0-3,1.5,1.5,0,0,0,0,3Z" transform="translate(-2.01 -4.32)"/><path d="M447.62,224.35a1.5,1.5,0,0,0,0-3,1.5,1.5,0,0,0,0,3Z" transform="translate(-2.01 -4.32)"/><path d="M477.23,174.31a1.5,1.5,0,0,0,0-3,1.5,1.5,0,0,0,0,3Z" transform="translate(-2.01 -4.32)"/><path d="M486.43,124.27a1.5,1.5,0,0,0,0-3,1.5,1.5,0,0,0,0,3Z" transform="translate(-2.01 -4.32)"/><path d="M417,120.18a1.5,1.5,0,0,0,0-3,1.5,1.5,0,0,0,0,3Z" transform="translate(-2.01 -4.32)"/><path d="M286.26,165.12a1.5,1.5,0,0,0,0-3,1.5,1.5,0,0,0,0,3Z" transform="translate(-2.01 -4.32)"/><path d="M204.55,165.12a1.5,1.5,0,0,0,0-3,1.5,1.5,0,0,0,0,3Z" transform="translate(-2.01 -4.32)"/><path d="M244.38,118.14a1.5,1.5,0,0,0,0-3,1.5,1.5,0,0,0,0,3Z" transform="translate(-2.01 -4.32)"/><path d="M282.17,85.46a1.5,1.5,0,0,0,0-3,1.5,1.5,0,0,0,0,3Z" transform="translate(-2.01 -4.32)"/><path d="M550.77,43.59a1.5,1.5,0,0,0,0-3,1.5,1.5,0,0,0,0,3Z" transform="translate(-2.01 -4.32)"/><path d="M609,297.88a1.5,1.5,0,0,0,0-3,1.5,1.5,0,0,0,0,3Z" transform="translate(-2.01 -4.32)"/><path d="M560,265.2a1.5,1.5,0,0,0,0-3,1.5,1.5,0,0,0,0,3Z" transform="translate(-2.01 -4.32)"/><path d="M475.19,267.24a1.5,1.5,0,0,0,0-3,1.5,1.5,0,0,0,0,3Z" transform="translate(-2.01 -4.32)"/><path d="M420,281.54a1.5,1.5,0,0,0,0-3,1.5,1.5,0,0,0,0,3Z" transform="translate(-2.01 -4.32)"/><path d="M360.81,193.71a1.5,1.5,0,0,0,0-3,1.5,1.5,0,0,0,0,3Z" transform="translate(-2.01 -4.32)"/><path d="M630.43,486.82a1.5,1.5,0,0,0,0-3,1.5,1.5,0,0,0,0,3Z" transform="translate(-2.01 -4.32)"/><path d="M625.32,456.18a1.5,1.5,0,0,0,0-3,1.5,1.5,0,0,0,0,3Z" transform="translate(-2.01 -4.32)"/><path d="M550.77,421.46a1.5,1.5,0,0,0,0-3,1.5,1.5,0,0,0,0,3Z" transform="translate(-2.01 -4.32)"/><path d="M490.51,421.46a1.5,1.5,0,0,0,0-3,1.5,1.5,0,0,0,0,3Z" transform="translate(-2.01 -4.32)"/><path d="M370,419.41a1.5,1.5,0,0,0,0-3,1.5,1.5,0,0,0,0,3Z" transform="translate(-2.01 -4.32)"/><path d="M317.91,465.37a1.5,1.5,0,0,0,0-3,1.5,1.5,0,0,0,0,3Z" transform="translate(-2.01 -4.32)"/><path d="M201.49,516.44a1.5,1.5,0,0,0,0-3,1.5,1.5,0,0,0,0,3Z" transform="translate(-2.01 -4.32)"/><path d="M182.09,594.05a1.5,1.5,0,0,0,0-3,1.5,1.5,0,0,0,0,3Z" transform="translate(-2.01 -4.32)"/><path d="M122.85,537.88a1.5,1.5,0,0,0,0-3,1.5,1.5,0,0,0,0,3Z" transform="translate(-2.01 -4.32)"/><path d="M71.79,514.39a1.5,1.5,0,0,0,0-3,1.5,1.5,0,0,0,0,3Z" transform="translate(-2.01 -4.32)"/><path d="M67.7,468.44a1.5,1.5,0,0,0,0-3,1.5,1.5,0,0,0,0,3Z" transform="translate(-2.01 -4.32)"/><path d="M61.57,387.76a1.5,1.5,0,0,0,0-3,1.5,1.5,0,0,0,0,3Z" transform="translate(-2.01 -4.32)"/><path d="M48.3,249.88a1.5,1.5,0,0,0,0-3,1.5,1.5,0,0,0,0,3Z" transform="translate(-2.01 -4.32)"/><path d="M142.26,383.67a1.5,1.5,0,0,0,0-3,1.5,1.5,0,0,0,0,3Z" transform="translate(-2.01 -4.32)"/><path d="M229.06,465.37a1.5,1.5,0,0,0,0-3,1.5,1.5,0,0,0,0,3Z" transform="translate(-2.01 -4.32)"/><path d="M317.91,514.39a1.5,1.5,0,0,0,0-3,1.5,1.5,0,0,0,0,3Z" transform="translate(-2.01 -4.32)"/><path d="M449.66,523.59a1.5,1.5,0,0,0,0-3,1.5,1.5,0,0,0,0,3Z" transform="translate(-2.01 -4.32)"/><path d="M525.23,545a1.5,1.5,0,0,0,0-3,1.5,1.5,0,0,0,0,3Z" transform="translate(-2.01 -4.32)"/><path d="M555.87,619.59a1.5,1.5,0,0,0,0-3,1.5,1.5,0,0,0,0,3Z" transform="translate(-2.01 -4.32)"/><path d="M634.51,619.59a1.5,1.5,0,0,0,0-3,1.5,1.5,0,0,0,0,3Z" transform="translate(-2.01 -4.32)"/><path d="M617.15,548.1a1.5,1.5,0,0,0,0-3,1.5,1.5,0,0,0,0,3Z" transform="translate(-2.01 -4.32)"/><path d="M567.11,570.56a1.5,1.5,0,0,0,0-3,1.5,1.5,0,0,0,0,3Z" transform="translate(-2.01 -4.32)"/><path d="M420,560.35a1.5,1.5,0,0,0,0-3,1.5,1.5,0,0,0,0,3Z" transform="translate(-2.01 -4.32)"/><path d="M352.64,574.65a1.5,1.5,0,0,0,0-3,1.5,1.5,0,0,0,0,3Z" transform="translate(-2.01 -4.32)"/><path d="M247.45,586.9a1.5,1.5,0,0,0,0-3,1.5,1.5,0,0,0,0,3Z" transform="translate(-2.01 -4.32)"/><path d="M263.79,495a1.5,1.5,0,0,0,0-3,1.5,1.5,0,0,0,0,3Z" transform="translate(-2.01 -4.32)"/><path d="M203.53,381.63a1.5,1.5,0,0,0,0-3,1.5,1.5,0,0,0,0,3Z" transform="translate(-2.01 -4.32)"/><path d="M241.32,359.16a1.5,1.5,0,0,0,0-3,1.5,1.5,0,0,0,0,3Z" transform="translate(-2.01 -4.32)"/><path d="M249.49,278.48a1.5,1.5,0,0,0,0-3,1.5,1.5,0,0,0,0,3Z" transform="translate(-2.01 -4.32)"/><path d="M189.23,239.67a1.5,1.5,0,0,0,0-3,1.5,1.5,0,0,0,0,3Z" transform="translate(-2.01 -4.32)"/><path d="M365.91,292.78a1.5,1.5,0,0,0,0-3,1.5,1.5,0,0,0,0,3Z" transform="translate(-2.01 -4.32)"/><path d="M397.57,385.71a1.5,1.5,0,0,0,0-3,1.5,1.5,0,0,0,0,3Z" transform="translate(-2.01 -4.32)"/><path d="M488,597l1,4.08a1.52,1.52,0,0,0,1.85,1,1.54,1.54,0,0,0,1-1.85l-1-4.08a1.5,1.5,0,0,0-2.9.8Z" transform="translate(-2.01 -4.32)"/><path d="M510.94,225.37a1.5,1.5,0,0,0,0-3,1.5,1.5,0,0,0,0,3Z" transform="translate(-2.01 -4.32)"/><path d="M285.23,203.93a1.5,1.5,0,0,0,0-3,1.5,1.5,0,0,0,0,3Z" transform="translate(-2.01 -4.32)"/><path d="M670.59,9.62q10.3,131.22,10.89,263,.56,131-8.57,261.69c-1.49,21.37-3,42.75-5.07,64.08-1.43,14.94-3.73,31.22-12.68,43.74-4.76,6.67-11.53,11-19.21,13.69-9.53,3.29-19.49,5.54-29.24,8.05-20.4,5.26-41.08,9.92-62.14,11.45-21.48,1.56-42.48-1.68-63.85-3.22-20.63-1.49-40.53,1.09-60.56,6-19.39,4.74-38.57,10.92-58.44,13.42-21.09,2.65-42.18,0-63-3.26-21.15-3.32-42.23-6.26-63.62-7.55s-42.94-1.44-64.41-1.32c-43,.23-86.08,1.59-128.9-2.78-3.78-.39-7.85-.72-11.28-2.47-4.09-2.1-5.5-6.26-6.31-10.51-1.88-9.82-2.14-20.22-2.61-30.18-1-21.09-.58-42.22.39-63.31,1.92-42.24,6-84.42,5.35-126.75a427.73,427.73,0,0,0-5.43-62.71c-3.42-20.7-8.29-41.2-10.22-62.13-2-21.23.57-41.73,4.6-62.57s7.66-41.54,8.13-62.86-1.19-42.83-2.58-64.2c-1.34-20.59-3.2-41.82-1-62.41.91-8.58,3.31-17.36,9-24.09A44.72,44.72,0,0,1,47.73,30c16.05-6.35,33.89-7.22,50.89-8.68A1200.2,1200.2,0,0,1,357,27c21.29,2.79,42.47,6.57,63.89,8.28s42.24.28,63.29-3,41.85-7.81,62.9-11q32.14-4.82,64.64-6.71,31.71-1.89,63.49-1c5.79.15,5.79-8.85,0-9a749.85,749.85,0,0,0-131.86,8.29c-21.47,3.26-42.69,7.94-64.17,11.16a261.12,261.12,0,0,1-65,1.69c-21.83-2.17-43.48-6-65.25-8.7s-43.79-4.82-65.77-6.32A1200.22,1200.22,0,0,0,151.11,9q-33,1.38-65.92,4.58C69,15.1,52.32,17,37.76,24.72A48.56,48.56,0,0,0,20.37,39.91C15.18,47.4,13,56.38,11.9,65.31c-2.45,20.93-.47,42.6.89,63.55,1.42,21.81,3.12,43.66,2.55,65.54s-4.76,42.89-8.77,64.3C2.6,279.94.69,300.83,3,322.38c2.32,21.27,7.22,42.12,10.57,63.22,13.64,85.75-6.55,172.24-.43,258.31.64,9,.54,19.41,4,27.92s11.3,12,20.06,13.21c21.4,2.83,43.25,3.32,64.81,3.57,43.88.52,87.81-1.57,131.66,1,21.95,1.26,43.51,4.35,65.21,7.71,21.23,3.28,42.58,5.79,64,3,20.28-2.62,39.8-8.75,59.61-13.58a218.83,218.83,0,0,1,29.37-5.48,174.58,174.58,0,0,1,32.81.14c21.8,1.85,43.13,4.56,65.06,2.46,21.39-2.06,42.38-6.89,63.14-12.32,17.24-4.52,36.52-7.68,48.19-22.49,10-12.71,13.24-29.15,15.09-44.84,2.47-20.94,3.7-42.09,5.21-63.12q2.39-33.33,4.16-66.7,3.52-66.75,4.52-133.59,2-133.65-6.07-267.21-1.93-32-4.45-63.95c-.45-5.73-9.46-5.78-9,0Z" transform="translate(-2.01 -4.32)"/></svg>