<svg id="b2067222-27aa-4ffb-8009-bf26e6b4467a" xmlns="http://www.w3.org/2000/svg" viewBox="0 0 664.68 154.98"><defs><style>.cls-1{fill:#f6e58d;}</style></defs><title>buttoni2</title><path class="cls-1" d="M4.27,8.15C27.18,16.68,14.72,27.5,9,37.42,1.14,51.09,7.78,65,14.43,78.67L32.52,116c2.56,5.28,5.11,10.61,2,15.87-2.48,4.25-8.63,8.43-7.92,12.72.23,1.43,1.58,3,6.54,3.9a86.19,86.19,0,0,0,11,.92c39,1.49,78.46-1.47,118-1.58,44.5-.12,88.44,3.39,132.78,2.52,53.56-1,105.48-8.39,157.81-5.62,21.25,1.12,40.27,3.86,61.48,5,23.87,1.3,48.88.54,73.2-.23,12.92-.4,26.15-.84,37.63-2.24,22.36-2.72,33.69-8.7,35-14.43s-5.75-11.35-11.72-16.92C630.6,99.39,621.75,82.38,622,65.37a27.65,27.65,0,0,1,4.75-16.08c2.55-3.69,6.38-7.34,8.84-11,5.53-8.33,4-16.8,2.46-25.21-.47-2.56-1.85-5.51-11.27-6.95a145.11,145.11,0,0,0-18.52-1C422.84,2.59,236.41,9,51.27,5.5,35.22,5.2,17.59,4.91,4.56,7" transform="translate(0 0.02)"/><path d="M3,12.5c3.29,1.27,8.5,3.26,9.83,6.74a3.54,3.54,0,0,1,0,2.36,13.53,13.53,0,0,1-1.58,3.81C9.7,28.26,7.73,30.87,6,33.64A32.28,32.28,0,0,0,.89,50.78c0,13,7.19,25.2,12.71,36.59l9.33,19.26L27.45,116c1.35,2.79,3,5.62,3.69,8.67,1.27,5.64-4.26,8.89-7,13.1-2.41,3.69-3.08,8.57.33,11.86,3.86,3.73,10.59,3.84,15.59,4.14,6.93.42,13.89.52,20.83.59,28.34.27,56.65-1.24,85-1.78,56.38-1.08,112.69,4.18,169.07,1.68,27.83-1.24,55.59-3.68,83.42-4.89a592.93,592.93,0,0,1,82.69,2.17c13.53,1.29,27.05,2.59,40.63,3.1,13.9.51,27.81.42,41.7.11s27.72-.66,41.57-1.33c12.45-.61,25.1-1.51,37.21-4.64,7-1.83,15.54-4.51,20.15-10.55,6.83-9-2.76-18-9.07-23.84-9-8.31-17.34-17.59-22.44-28.89-4.07-9-6.57-21.39-2-30.68,2.63-5.39,7.47-9.26,10.73-14.23A29,29,0,0,0,644,23.07c-.21-4.38-.47-10-2.5-14-1.67-3.28-5-5.09-8.38-6.18C627.39,1,621,.89,615,.7c-7-.2-14-.22-21-.3Q572.5.16,551,.06C494-.2,437,.2,380,.7S266,1.84,209,2C152.47,2.22,96,1.35,39.43.84c-12-.11-24.08,0-36,1.88C1,3.11-.28,6.1.29,8.26,1,10.83,3.43,11.78,5.82,11.4c11.85-1.86,24-1.68,36-1.54,13.59.17,27.17.48,40.75.66q42,.56,84,.56c55.9.06,111.8-.43,167.7-1C390,9.56,445.68,9,501.39,8.94q42.06-.06,84.13.32c13.09.13,26.69-.67,39.7,1.07a25.6,25.6,0,0,1,6.57,1.57,11,11,0,0,1,1.43.88c.44.24.29.34.25.23A39.17,39.17,0,0,1,635,27.21c-.61,6.22-4.46,10.47-8.31,15s-7.22,9.8-8.36,16c-1.93,10.44.19,21.22,4.4,30.83,4.71,10.75,12.31,20.15,20.68,28.27,2.16,2.09,4.41,4.06,6.57,6.13,2,1.87,4.61,4.11,5.56,6.74a3.67,3.67,0,0,1,.18,1.74c0,.6.31-.44-.19.39a12,12,0,0,1-1.59,1.75c-6.68,5.37-16.94,6.89-25.1,8.15-12.8,2-25.87,2.26-38.79,2.67-26.94.87-53.94,1.79-80.86,0s-53.83-5.32-81-5.32-54.11,2-81.13,3.77c-27.64,1.79-55.25,2.93-83,2.47-27.49-.46-54.95-1.89-82.43-2.37-27.74-.47-55.44.62-83.16,1.37-13.79.37-27.59.61-41.38.4-6.59-.1-13.23-.15-19.79-.74-2-.18-4.66-.3-6.39-1.3.31.18,0,.94.27.44a16.09,16.09,0,0,1,1.73-2.6c3.56-4.32,7.34-8,7.56-13.93.23-6.2-3.4-12.09-6-17.47-6-12.38-12.1-24.72-18-37.15-5.15-10.85-9.68-22.84-2.75-34,3.4-5.5,8.37-11.08,8.38-17.92,0-9.22-9.21-13.84-16.62-16.69C0,1.74-2.33,10.44,3,12.49Z" transform="translate(0 0.02)"/></svg>