<svg id="b2067222-27aa-4ffb-8009-bf26e6b4467a" data-name="Layer 1" xmlns="http://www.w3.org/2000/svg" viewBox="0 0 664.68 154.96"><defs><style>.b7aa8340-a621-48a4-bb59-b6b4861333c0{fill:#f6e58d;}</style></defs><title>buttoni2</title><path class="b7aa8340-a621-48a4-bb59-b6b4861333c0" d="M22,30.65C44.91,39.18,32.45,50,26.75,59.92c-7.88,13.67-1.24,27.54,5.41,41.25l18.09,37.34c2.56,5.28,5.11,10.61,2,15.87-2.48,4.25-8.63,8.43-7.92,12.72.23,1.43,1.58,3,6.54,3.9a85.34,85.34,0,0,0,11,.92c39,1.49,78.46-1.47,118-1.58,44.5-.12,88.44,3.39,132.78,2.52,53.56-1,105.48-8.39,157.81-5.62,21.25,1.12,40.27,3.86,61.48,5,23.87,1.3,48.88.54,73.2-.23,12.92-.4,26.15-.84,37.63-2.24,22.36-2.72,33.69-8.7,35-14.43s-5.75-11.35-11.72-16.92c-17.72-16.53-26.57-33.54-26.31-50.55a27.69,27.69,0,0,1,4.75-16.08c2.55-3.69,6.38-7.34,8.84-11,5.53-8.33,4-16.8,2.46-25.21-.47-2.56-1.85-5.51-11.27-6.95a145.17,145.17,0,0,0-18.52-1C440.57,25.09,254.14,31.54,69,28c-16.05-.3-33.68-.59-46.71,1.54" transform="translate(-17.73 -22.5)"/><path d="M20.77,35c3.29,1.27,8.5,3.26,9.83,6.74a3.53,3.53,0,0,1,0,2.36,13.31,13.31,0,0,1-1.58,3.81c-1.59,2.85-3.56,5.46-5.29,8.23a32.28,32.28,0,0,0-5.11,17.14c0,13,7.19,25.2,12.71,36.59l9.33,19.26,4.52,9.33c1.35,2.79,3,5.62,3.69,8.67,1.27,5.64-4.26,8.89-7,13.1-2.41,3.69-3.08,8.57.33,11.86,3.86,3.73,10.59,3.84,15.59,4.14,6.93.42,13.89.52,20.83.59,28.34.27,56.65-1.24,85-1.78,56.38-1.08,112.69,4.18,169.07,1.68,27.83-1.24,55.59-3.68,83.42-4.89A592.61,592.61,0,0,1,498.8,174c13.53,1.29,27.05,2.59,40.63,3.1,13.9.51,27.81.42,41.7.11s27.72-.66,41.57-1.33c12.45-.61,25.1-1.51,37.21-4.64,7-1.83,15.54-4.51,20.15-10.55,6.83-9-2.76-18-9.07-23.84-9-8.31-17.34-17.59-22.44-28.89-4.07-9-6.57-21.39-2-30.68,2.63-5.39,7.47-9.26,10.73-14.23a29,29,0,0,0,4.46-17.48c-.21-4.38-.47-10-2.5-14-1.67-3.28-5-5.09-8.38-6.18-5.74-1.85-12.13-2-18.12-2.19-7-.2-14-.22-21-.3q-21.51-.24-43-.34c-57-.26-114,.14-171,.64s-114,1.14-171,1.33c-56.54.19-113-.68-169.58-1.19-12-.11-24.08,0-36,1.88-2.42.39-3.71,3.38-3.14,5.54.67,2.57,3.14,3.52,5.53,3.14,11.85-1.86,24-1.68,36-1.54,13.59.17,27.17.48,40.75.66q42,.55,84,.56c55.9.06,111.8-.43,167.7-1,55.7-.52,111.41-1.07,167.12-1.14q42.06-.06,84.13.32c13.09.13,26.69-.67,39.7,1.07a25.6,25.6,0,0,1,6.57,1.57,10.65,10.65,0,0,1,1.43.88c.44.24.29.34.25.23a39,39,0,0,1,1.48,14.2c-.61,6.22-4.46,10.47-8.31,15s-7.22,9.8-8.36,16c-1.93,10.44.19,21.22,4.4,30.83,4.71,10.75,12.31,20.15,20.68,28.27,2.16,2.09,4.41,4.06,6.57,6.13,2,1.87,4.61,4.11,5.56,6.74a3.71,3.71,0,0,1,.18,1.74c0,.6.31-.44-.19.39a12.11,12.11,0,0,1-1.59,1.75c-6.68,5.37-16.94,6.89-25.1,8.15-12.8,2-25.87,2.26-38.79,2.67-26.94.87-53.94,1.79-80.86,0s-53.83-5.32-81-5.32-54.11,2-81.13,3.77c-27.64,1.79-55.25,2.93-83,2.47-27.49-.46-54.95-1.89-82.43-2.37-27.74-.47-55.44.62-83.16,1.37-13.79.37-27.59.61-41.38.4-6.59-.1-13.23-.15-19.79-.74-2-.18-4.66-.3-6.39-1.3.31.18,0,.94.27.44a15.67,15.67,0,0,1,1.73-2.6c3.56-4.32,7.34-8,7.56-13.93.23-6.2-3.4-12.09-6-17.47-6-12.38-12.1-24.72-18-37.15C29,84.1,24.47,72.11,31.4,60.92c3.4-5.5,8.37-11.08,8.38-17.92,0-9.22-9.21-13.84-16.62-16.69-5.41-2.07-7.76,6.63-2.39,8.68Z" transform="translate(-17.73 -22.5)"/></svg>