<svg id="Layer_1" data-name="Layer 1" xmlns="http://www.w3.org/2000/svg" viewBox="0 0 37.77 39.73"><defs><style>.cls-1{fill:#fff;}</style></defs><title>loader</title><path class="cls-1" d="M26.62,11.28A14.88,14.88,0,0,0,13.94,18.9a24.09,24.09,0,0,0-2.16,6.3,15.28,15.28,0,0,0-.34,7.07,12.16,12.16,0,0,0,5.37,6.82,71.75,71.75,0,0,0,7.9,4.06,4.68,4.68,0,0,0,1.83.62A4.44,4.44,0,0,0,28,43.53l5-1.41a8.82,8.82,0,0,0,3-1.24A9,9,0,0,0,38,38.22l3.06-5.06a10.4,10.4,0,0,0,1.81-4.43,10.35,10.35,0,0,0-.47-3.4l-2.11-8.28a5.05,5.05,0,0,0-.66-1.69,5,5,0,0,0-1.39-1.2c-3.69-2.41-7.91-4.53-12.3-4.1" transform="translate(-8.17 -7.01)"/><path d="M26.62,8.28a18.11,18.11,0,0,0-16.5,11.84c-1.41,3.7-2.4,8.13-1.75,12.07s3.26,6.85,6.29,9.05A30.94,30.94,0,0,0,19.58,44a41.18,41.18,0,0,0,5.4,2.5c2.07.62,4.09-.18,6.07-.74a28.63,28.63,0,0,0,5.72-1.89,10.71,10.71,0,0,0,3.86-4.15c1.1-1.81,2.21-3.62,3.28-5.44a12,12,0,0,0,2-6,23.92,23.92,0,0,0-1.19-6.07c-.56-2.21-1-4.51-1.72-6.68-.77-2.34-2.48-3.55-4.5-4.78C34.77,8.48,30.46,6.7,26,7.06a3.07,3.07,0,0,0-3,3,3,3,0,0,0,3,3,14.37,14.37,0,0,1,8.21,2.13c.9.49,2.59,1.18,3.13,2-.06-.1-.1-.07,0,.12a9,9,0,0,1,.26,1c.24.92.47,1.84.7,2.76.39,1.53.79,3.06,1.18,4.59.34,1.37.76,2.61.2,4a31.92,31.92,0,0,1-2.27,3.92c-.85,1.41-1.63,3-2.62,4.28a4.26,4.26,0,0,1-2.56,1.4c-1.67.47-3.33,1-5,1.41a5.37,5.37,0,0,0-.68.16s.1-.06.08-.07a11.79,11.79,0,0,1-2-.95c-1.47-.69-3-1.36-4.39-2.14-2.25-1.22-4.59-2.83-5.62-5.27s-.19-5.58.49-8.1a13.35,13.35,0,0,1,4.48-7.47,12,12,0,0,1,7-2.52c3.86-.09,3.87-6.09,0-6Z" transform="translate(-8.17 -7.01)"/></svg>